<svg width="400" height="300" viewBox="0 0 400 300" fill="none" xmlns="http://www.w3.org/2000/svg">
  <!-- Background gradient -->
  <defs>
    <linearGradient id="energyGradient" x1="0%" y1="0%" x2="100%" y2="100%">
      <stop offset="0%" style="stop-color:#059669;stop-opacity:0.1" />
      <stop offset="100%" style="stop-color:#10b981;stop-opacity:0.2" />
    </linearGradient>
    <linearGradient id="solarGradient" x1="0%" y1="0%" x2="100%" y2="100%">
      <stop offset="0%" style="stop-color:#3b82f6;stop-opacity:1" />
      <stop offset="100%" style="stop-color:#1e40af;stop-opacity:1" />
    </linearGradient>
    <linearGradient id="windGradient" x1="0%" y1="0%" x2="100%" y2="100%">
      <stop offset="0%" style="stop-color:#10b981;stop-opacity:1" />
      <stop offset="100%" style="stop-color:#059669;stop-opacity:1" />
    </linearGradient>
  </defs>
  
  <!-- Background -->
  <rect width="400" height="300" fill="url(#energyGradient)" rx="20"/>
  
  <!-- Solar panels -->
  <g transform="translate(50, 120)">
    <!-- Panel array -->
    <rect x="0" y="0" width="80" height="50" fill="url(#solarGradient)" rx="4"/>
    <rect x="0" y="55" width="80" height="50" fill="url(#solarGradient)" rx="4"/>
    
    <!-- Panel grid lines -->
    <line x1="20" y1="0" x2="20" y2="50" stroke="#1e40af" stroke-width="1"/>
    <line x1="40" y1="0" x2="40" y2="50" stroke="#1e40af" stroke-width="1"/>
    <line x1="60" y1="0" x2="60" y2="50" stroke="#1e40af" stroke-width="1"/>
    
    <line x1="20" y1="55" x2="20" y2="105" stroke="#1e40af" stroke-width="1"/>
    <line x1="40" y1="55" x2="40" y2="105" stroke="#1e40af" stroke-width="1"/>
    <line x1="60" y1="55" x2="60" y2="105" stroke="#1e40af" stroke-width="1"/>
    
    <!-- Support structure -->
    <polygon points="0,105 80,105 70,120 10,120" fill="#6b7280"/>
  </g>
  
  <!-- Wind turbine -->
  <g transform="translate(200, 80)">
    <!-- Tower -->
    <rect x="48" y="80" width="4" height="120" fill="#6b7280"/>
    
    <!-- Nacelle -->
    <ellipse cx="50" cy="85" rx="15" ry="8" fill="#374151"/>
    
    <!-- Blades -->
    <g transform="rotate(15 50 85)">
      <ellipse cx="50" cy="60" rx="3" ry="25" fill="white"/>
      <ellipse cx="35" cy="95" rx="3" ry="25" fill="white" transform="rotate(120 50 85)"/>
      <ellipse cx="65" cy="95" rx="3" ry="25" fill="white" transform="rotate(240 50 85)"/>
    </g>
    
    <!-- Hub -->
    <circle cx="50" cy="85" r="5" fill="#374151"/>
  </g>
  
  <!-- Power transmission lines -->
  <g transform="translate(280, 100)">
    <!-- Transmission tower -->
    <polygon points="20,0 25,0 30,80 10,80" fill="#6b7280"/>
    <rect x="5" y="20" width="30" height="3" fill="#374151"/>
    <rect x="8" y="40" width="24" height="3" fill="#374151"/>
    <rect x="12" y="60" width="16" height="3" fill="#374151"/>
    
    <!-- Power lines -->
    <path d="M0,25 Q10,30 20,25 Q30,20 40,25" stroke="#374151" stroke-width="2" fill="none"/>
    <path d="M0,45 Q10,50 20,45 Q30,40 40,45" stroke="#374151" stroke-width="2" fill="none"/>
  </g>
  
  <!-- Lightning bolt (energy symbol) -->
  <g transform="translate(160, 180)">
    <path d="M15,0 L5,20 L12,20 L8,35 L18,15 L11,15 Z" fill="#fbbf24"/>
    <path d="M17,2 L7,22 L14,22 L10,37 L20,17 L13,17 Z" fill="#f59e0b"/>
  </g>
  
  <!-- Battery/Energy storage -->
  <g transform="translate(320, 180)">
    <rect x="0" y="10" width="40" height="60" fill="#10b981" rx="8"/>
    <rect x="15" y="5" width="10" height="10" fill="#059669" rx="2"/>
    
    <!-- Battery level indicators -->
    <rect x="8" y="20" width="24" height="8" fill="white" opacity="0.8" rx="2"/>
    <rect x="8" y="32" width="24" height="8" fill="white" opacity="0.6" rx="2"/>
    <rect x="8" y="44" width="24" height="8" fill="white" opacity="0.4" rx="2"/>
    <rect x="8" y="56" width="24" height="8" fill="white" opacity="0.2" rx="2"/>
  </g>
  
  <!-- Sun rays -->
  <g transform="translate(80, 80)">
    <circle cx="0" cy="0" r="15" fill="#fbbf24"/>
    <line x1="-25" y1="0" x2="-20" y2="0" stroke="#f59e0b" stroke-width="3"/>
    <line x1="20" y1="0" x2="25" y2="0" stroke="#f59e0b" stroke-width="3"/>
    <line x1="0" y1="-25" x2="0" y2="-20" stroke="#f59e0b" stroke-width="3"/>
    <line x1="0" y1="20" x2="0" y2="25" stroke="#f59e0b" stroke-width="3"/>
    <line x1="-18" y1="-18" x2="-14" y2="-14" stroke="#f59e0b" stroke-width="3"/>
    <line x1="14" y1="14" x2="18" y2="18" stroke="#f59e0b" stroke-width="3"/>
    <line x1="18" y1="-18" x2="14" y2="-14" stroke="#f59e0b" stroke-width="3"/>
    <line x1="-14" y1="14" x2="-18" y2="18" stroke="#f59e0b" stroke-width="3"/>
  </g>
  
  <!-- Title -->
  <text x="200" y="40" text-anchor="middle" fill="#059669" font-family="Arial, sans-serif" font-size="18" font-weight="bold">
    Energy Services
  </text>
</svg>