<svg width="400" height="300" viewBox="0 0 400 300" fill="none" xmlns="http://www.w3.org/2000/svg">
  <!-- Background gradient -->
  <defs>
    <linearGradient id="miningGradient" x1="0%" y1="0%" x2="100%" y2="100%">
      <stop offset="0%" style="stop-color:#a16207;stop-opacity:0.1" />
      <stop offset="100%" style="stop-color:#d97706;stop-opacity:0.2" />
    </linearGradient>
    <linearGradient id="excavatorGradient" x1="0%" y1="0%" x2="100%" y2="100%">
      <stop offset="0%" style="stop-color:#d97706;stop-opacity:1" />
      <stop offset="100%" style="stop-color:#a16207;stop-opacity:1" />
    </linearGradient>
    <linearGradient id="mineralGradient" x1="0%" y1="0%" x2="100%" y2="100%">
      <stop offset="0%" style="stop-color:#6b7280;stop-opacity:1" />
      <stop offset="100%" style="stop-color:#374151;stop-opacity:1" />
    </linearGradient>
  </defs>
  
  <!-- Background -->
  <rect width="400" height="300" fill="url(#miningGradient)" rx="20"/>
  
  <!-- Mine shaft entrance -->
  <g transform="translate(50, 120)">
    <!-- Shaft opening -->
    <rect x="0" y="40" width="60" height="80" fill="#1f2937" rx="8"/>
    <rect x="5" y="45" width="50" height="70" fill="#111827" rx="4"/>
    
    <!-- Support beams -->
    <rect x="0" y="35" width="60" height="8" fill="url(#mineralGradient)"/>
    <rect x="10" y="40" width="4" height="80" fill="#6b7280"/>
    <rect x="46" y="40" width="4" height="80" fill="#6b7280"/>
    
    <!-- Mine cart tracks -->
    <rect x="25" y="110" width="10" height="3" fill="#6b7280"/>
    <rect x="20" y="115" width="20" height="2" fill="#374151"/>
  </g>
  
  <!-- Excavator -->
  <g transform="translate(180, 150)">
    <!-- Main body -->
    <rect x="20" y="20" width="50" height="30" fill="url(#excavatorGradient)" rx="8"/>
    
    <!-- Cabin -->
    <rect x="45" y="10" width="25" height="20" fill="#a16207" rx="4"/>
    <rect x="48" y="13" width="19" height="14" fill="#1e40af" opacity="0.3" rx="2"/>
    
    <!-- Tracks -->
    <rect x="15" y="45" width="60" height="15" fill="#374151" rx="7"/>
    <circle cx="25" cy="52" r="6" fill="#6b7280"/>
    <circle cx="40" cy="52" r="6" fill="#6b7280"/>
    <circle cx="55" cy="52" r="6" fill="#6b7280"/>
    <circle cx="65" cy="52" r="6" fill="#6b7280"/>
    
    <!-- Boom arm -->
    <rect x="10" y="25" width="40" height="6" fill="#a16207" rx="3" transform="rotate(-20 30 28)"/>
    
    <!-- Stick -->
    <rect x="-5" y="15" width="30" height="4" fill="#a16207" rx="2" transform="rotate(-45 10 17)"/>
    
    <!-- Bucket -->
    <path d="M-15,5 L-5,15 L-10,20 L-20,10 Z" fill="#6b7280"/>
    <path d="M-20,10 L-15,15 L-12,18 L-17,13 Z" fill="#374151"/>
  </g>
  
  <!-- Mineral deposits/gems -->
  <g transform="translate(300, 180)">
    <!-- Diamond -->
    <path d="M20,10 L30,20 L20,35 L10,20 Z" fill="#3b82f6"/>
    <path d="M20,10 L25,15 L20,25 L15,15 Z" fill="#60a5fa" opacity="0.7"/>
    
    <!-- Gold nugget -->
    <ellipse cx="15" cy="50" rx="12" ry="8" fill="#fbbf24"/>
    <ellipse cx="15" cy="50" rx="8" ry="5" fill="#f59e0b" opacity="0.8"/>
    
    <!-- Coal/mineral chunks -->
    <rect x="35" y="45" width="15" height="12" fill="#374151" rx="3"/>
    <rect x="55" y="50" width="12" height="10" fill="#6b7280" rx="2"/>
  </g>
  
  <!-- Conveyor belt -->
  <g transform="translate(120, 200)">
    <rect x="0" y="0" width="150" height="15" fill="#6b7280" rx="7"/>
    
    <!-- Belt segments -->
    <rect x="10" y="3" width="8" height="9" fill="#374151" rx="1"/>
    <rect x="25" y="3" width="8" height="9" fill="#374151" rx="1"/>
    <rect x="40" y="3" width="8" height="9" fill="#374151" rx="1"/>
    <rect x="55" y="3" width="8" height="9" fill="#374151" rx="1"/>
    <rect x="70" y="3" width="8" height="9" fill="#374151" rx="1"/>
    
    <!-- Support pillars -->
    <rect x="20" y="15" width="4" height="20" fill="#6b7280"/>
    <rect x="70" y="15" width="4" height="20" fill="#6b7280"/>
    <rect x="120" y="15" width="4" height="20" fill="#6b7280"/>
  </g>
  
  <!-- Dump truck -->
  <g transform="translate(280, 120)">
    <!-- Truck bed -->
    <rect x="0" y="0" width="40" height="25" fill="url(#excavatorGradient)" rx="4"/>
    <polygon points="0,0 40,0 35,15 5,15" fill="#a16207"/>
    
    <!-- Cab -->
    <rect x="35" y="15" width="20" height="15" fill="#d97706" rx="3"/>
    <rect x="37" y="17" width="16" height="11" fill="#1e40af" opacity="0.3" rx="2"/>
    
    <!-- Wheels -->
    <circle cx="15" cy="35" r="8" fill="#374151"/>
    <circle cx="45" cy="35" r="8" fill="#374151"/>
    <circle cx="15" cy="35" r="5" fill="#6b7280"/>
    <circle cx="45" cy="35" r="5" fill="#6b7280"/>
    
    <!-- Load in truck bed -->
    <ellipse cx="10" cy="8" rx="6" ry="4" fill="#6b7280"/>
    <ellipse cx="20" cy="6" rx="5" ry="3" fill="#374151"/>
    <ellipse cx="30" cy="9" rx="4" ry="3" fill="#6b7280"/>
  </g>
  
</svg>