<?xml version="1.0" encoding="UTF-8"?>
<!DOCTYPE svg PUBLIC "-//W3C//DTD SVG 1.1//EN" "http://www.w3.org/Graphics/SVG/1.1/DTD/svg11.dtd">
<svg xmlns="http://www.w3.org/2000/svg" version="1.1" width="1555px" height="1555px" style="shape-rendering:geometricPrecision; text-rendering:geometricPrecision; image-rendering:optimizeQuality; fill-rule:evenodd; clip-rule:evenodd" xmlns:xlink="http://www.w3.org/1999/xlink">
<g><path style="opacity:0.427" fill="#ffdda7" d="M 1042.5,602.5 C 1039.24,600.075 1037.74,596.742 1038,592.5C 1036.87,590.859 1035.37,589.859 1033.5,589.5C 1033.5,588.5 1033.5,587.5 1033.5,586.5C 1035.5,586.5 1037.5,586.5 1039.5,586.5C 1039.05,592.136 1040.05,597.47 1042.5,602.5 Z"/></g>
<g><path style="opacity:0.251" fill="#ffeed4" d="M 1033.5,592.5 C 1034.6,593.601 1034.76,594.934 1034,596.5C 1032.24,601.033 1029.74,605.033 1026.5,608.5C 1025.51,608.672 1024.84,608.338 1024.5,607.5C 1028.43,603.05 1031.43,598.05 1033.5,592.5 Z"/></g>
<g><path style="opacity:0.216" fill="#ffe3b6" d="M 1042.5,602.5 C 1044.59,603.585 1045.92,605.251 1046.5,607.5C 1044.41,606.415 1043.08,604.749 1042.5,602.5 Z"/></g>
<g><path style="opacity:0.553" fill="#ffcc7b" d="M 1024.5,607.5 C 1024.84,608.338 1025.51,608.672 1026.5,608.5C 1023.76,611.421 1020.42,613.421 1016.5,614.5C 1017.11,613.609 1017.44,612.609 1017.5,611.5C 1020.3,611.039 1022.64,609.705 1024.5,607.5 Z"/></g>
<g><path style="opacity:1" fill="#fea51a" d="M 1033.5,589.5 C 1035.37,589.859 1036.87,590.859 1038,592.5C 1037.74,596.742 1039.24,600.075 1042.5,602.5C 1043.08,604.749 1044.41,606.415 1046.5,607.5C 1049.4,611.548 1053.4,614.048 1058.5,615C 1059.25,615.671 1059.59,616.504 1059.5,617.5C 1058.83,617.5 1058.17,617.5 1057.5,617.5C 1056.43,616.566 1055.1,616.232 1053.5,616.5C 1053.5,617.5 1053.5,618.5 1053.5,619.5C 1052.83,620.167 1052.17,620.833 1051.5,621.5C 1051.72,620.325 1051.39,619.325 1050.5,618.5C 1048.06,619.931 1046.4,621.931 1045.5,624.5C 1045.5,625.167 1045.17,625.5 1044.5,625.5C 1042.98,625.511 1041.82,626.177 1041,627.5C 1039.41,630.767 1037.91,634.1 1036.5,637.5C 1035.83,635.709 1035.16,634.042 1034.5,632.5C 1030.79,625.289 1025.29,619.956 1018,616.5C 1017.24,616.57 1016.74,616.903 1016.5,617.5C 1015.5,617.5 1014.5,617.5 1013.5,617.5C 1013.5,616.5 1013.5,615.5 1013.5,614.5C 1014.5,614.5 1015.5,614.5 1016.5,614.5C 1020.42,613.421 1023.76,611.421 1026.5,608.5C 1029.74,605.033 1032.24,601.033 1034,596.5C 1034.76,594.934 1034.6,593.601 1033.5,592.5C 1033.5,591.5 1033.5,590.5 1033.5,589.5 Z"/></g>
<g><path style="opacity:0.289" fill="#ffe2b5" d="M 1017.5,611.5 C 1017.44,612.609 1017.11,613.609 1016.5,614.5C 1015.5,614.5 1014.5,614.5 1013.5,614.5C 1013.5,615.5 1013.5,616.5 1013.5,617.5C 1011.83,617.5 1010.17,617.5 1008.5,617.5C 1008.33,616.178 1008.66,615.011 1009.5,614C 1012.28,613.439 1014.95,612.606 1017.5,611.5 Z"/></g>
<g><path style="opacity:0.076" fill="#ffdfae" d="M 1046.5,607.5 C 1051.62,610.869 1057.29,612.869 1063.5,613.5C 1063.5,614.833 1063.5,616.167 1063.5,617.5C 1062.17,617.5 1060.83,617.5 1059.5,617.5C 1059.59,616.504 1059.25,615.671 1058.5,615C 1053.4,614.048 1049.4,611.548 1046.5,607.5 Z"/></g>
<g><path style="opacity:0.043" fill="#ffebcc" d="M 1057.5,617.5 C 1056.17,618.167 1054.83,618.833 1053.5,619.5C 1053.5,618.5 1053.5,617.5 1053.5,616.5C 1055.1,616.232 1056.43,616.566 1057.5,617.5 Z"/></g>
<g><path style="opacity:0.043" fill="#ffe7c1" d="M 1051.5,621.5 C 1049.05,621.615 1047.05,622.615 1045.5,624.5C 1046.4,621.931 1048.06,619.931 1050.5,618.5C 1051.39,619.325 1051.72,620.325 1051.5,621.5 Z"/></g>
<g><path style="opacity:0.251" fill="#ffeed4" d="M 954.5,622.5 C 954.5,623.833 954.5,625.167 954.5,626.5C 953.5,626.5 952.5,626.5 951.5,626.5C 952.026,624.77 953.026,623.436 954.5,622.5 Z"/></g>
<g><path style="opacity:0.506" fill="#fec261" d="M 954.5,622.5 C 957.084,623.048 958.084,624.715 957.5,627.5C 956.539,629.265 956.205,631.265 956.5,633.5C 955.691,631.708 955.191,629.708 955,627.5C 953.964,630.753 953.297,634.086 953,637.5C 952.098,639.431 950.931,641.097 949.5,642.5C 950.212,639.53 951.212,636.697 952.5,634C 952.472,632.93 952.139,632.097 951.5,631.5C 951.5,629.833 951.5,628.167 951.5,626.5C 952.5,626.5 953.5,626.5 954.5,626.5C 954.5,625.167 954.5,623.833 954.5,622.5 Z"/></g>
<g><path style="opacity:0.165" fill="#ffe9c6" d="M 1034.5,632.5 C 1034.77,634.099 1034.43,635.432 1033.5,636.5C 1031.87,632.583 1029.7,628.916 1027,625.5C 1023.27,622.914 1019.77,620.247 1016.5,617.5C 1016.74,616.903 1017.24,616.57 1018,616.5C 1025.29,619.956 1030.79,625.289 1034.5,632.5 Z"/></g>
<g><path style="opacity:0.165" fill="#ffdea8" d="M 957.5,627.5 C 958.81,632.076 959.81,636.743 960.5,641.5C 958.8,639.1 957.467,636.434 956.5,633.5C 956.205,631.265 956.539,629.265 957.5,627.5 Z"/></g>
<g><path style="opacity:0.635" fill="#feda9c" d="M 1044.5,625.5 C 1041.3,630.015 1039.64,635.015 1039.5,640.5C 1037.69,641.63 1035.69,642.296 1033.5,642.5C 1033.5,640.5 1033.5,638.5 1033.5,636.5C 1034.43,635.432 1034.77,634.099 1034.5,632.5C 1035.16,634.042 1035.83,635.709 1036.5,637.5C 1037.91,634.1 1039.41,630.767 1041,627.5C 1041.82,626.177 1042.98,625.511 1044.5,625.5 Z"/></g>
<g><path style="opacity:0.247" fill="#ffeaca" d="M 960.5,641.5 C 961.906,641.973 962.573,642.973 962.5,644.5C 961.094,644.027 960.427,643.027 960.5,641.5 Z"/></g>
<g><path style="opacity:0.027" fill="#fff5e5" d="M 1039.5,640.5 C 1038.25,644.639 1036.25,645.306 1033.5,642.5C 1035.69,642.296 1037.69,641.63 1039.5,640.5 Z"/></g>
<g><path style="opacity:0.151" fill="#ffeed3" d="M 951.5,631.5 C 952.139,632.097 952.472,632.93 952.5,634C 951.212,636.697 950.212,639.53 949.5,642.5C 947.5,645.167 945.5,647.833 943.5,650.5C 942.833,650.5 942.167,650.5 941.5,650.5C 946.134,644.9 949.468,638.567 951.5,631.5 Z"/></g>
<g><path style="opacity:0.098" fill="#ffe7c0" d="M 962.5,645.5 C 964.982,646.663 966.316,648.663 966.5,651.5C 964.782,649.777 963.449,647.777 962.5,645.5 Z"/></g>
<g><path style="opacity:0.416" fill="#fecf80" d="M 941.5,650.5 C 942.167,650.5 942.833,650.5 943.5,650.5C 941.8,655.7 938.3,659.033 933,660.5C 931.97,660.164 931.47,659.497 931.5,658.5C 935.673,657.005 939.006,654.338 941.5,650.5 Z"/></g>
<g><path style="opacity:0.592" fill="#ffdfa9" d="M 970.5,655.5 C 974.951,658.289 979.618,660.622 984.5,662.5C 984.5,662.833 984.5,663.167 984.5,663.5C 978.657,662.886 973.99,660.22 970.5,655.5 Z"/></g>
<g><path style="opacity:0.404" fill="#fdc869" d="M 984.5,662.5 C 986.833,662.5 989.167,662.5 991.5,662.5C 990.817,664.176 989.483,664.843 987.5,664.5C 987.5,665.833 987.5,667.167 987.5,668.5C 986.5,668.5 985.5,668.5 984.5,668.5C 984.672,667.508 984.338,666.842 983.5,666.5C 984.11,665.609 984.443,664.609 984.5,663.5C 984.5,663.167 984.5,662.833 984.5,662.5 Z"/></g>
<g><path style="opacity:0.871" fill="#fdc96f" d="M 929.5,660.5 C 929.5,661.5 929.5,662.5 929.5,663.5C 927.897,663.312 926.563,663.812 925.5,665C 927.066,665.608 928.4,666.442 929.5,667.5C 928.209,667.263 927.209,667.596 926.5,668.5C 925.167,668.5 923.833,668.5 922.5,668.5C 922.317,666.012 921.317,664.012 919.5,662.5C 923.009,662.542 926.342,661.876 929.5,660.5 Z"/></g>
<g><path style="opacity:1" fill="#fbae27" d="M 956.5,633.5 C 957.467,636.434 958.8,639.1 960.5,641.5C 960.427,643.027 961.094,644.027 962.5,644.5C 962.5,644.833 962.5,645.167 962.5,645.5C 963.449,647.777 964.782,649.777 966.5,651.5C 968.5,652.167 969.833,653.5 970.5,655.5C 973.99,660.22 978.657,662.886 984.5,663.5C 984.443,664.609 984.11,665.609 983.5,666.5C 980.769,667.027 978.102,667.86 975.5,669C 974.619,669.708 973.953,670.542 973.5,671.5C 970.167,674.167 967.167,677.167 964.5,680.5C 960.948,683.387 958.615,687.053 957.5,691.5C 955.974,693.45 954.974,695.783 954.5,698.5C 953.83,696.709 953.163,695.042 952.5,693.5C 949.053,681.056 941.387,672.389 929.5,667.5C 928.4,666.442 927.066,665.608 925.5,665C 926.563,663.812 927.897,663.312 929.5,663.5C 929.5,662.5 929.5,661.5 929.5,660.5C 930.167,659.833 930.833,659.167 931.5,658.5C 931.47,659.497 931.97,660.164 933,660.5C 938.3,659.033 941.8,655.7 943.5,650.5C 945.5,647.833 947.5,645.167 949.5,642.5C 950.931,641.097 952.098,639.431 953,637.5C 953.297,634.086 953.964,630.753 955,627.5C 955.191,629.708 955.691,631.708 956.5,633.5 Z"/></g>
<g><path style="opacity:0.087" fill="#fee6bd" d="M 919.5,662.5 C 921.317,664.012 922.317,666.012 922.5,668.5C 917.859,668.892 915.526,666.892 915.5,662.5C 916.833,662.5 918.167,662.5 919.5,662.5 Z"/></g>
<g><path style="opacity:0.086" fill="#fee6bc" d="M 991.5,662.5 C 992.451,663.919 992.784,665.585 992.5,667.5C 990.784,667.629 989.117,667.962 987.5,668.5C 987.5,667.167 987.5,665.833 987.5,664.5C 989.483,664.843 990.817,664.176 991.5,662.5 Z"/></g>
<g><path style="opacity:0.576" fill="#ffb65f" d="M 489.5,667.5 C 515.833,667.5 542.167,667.5 568.5,667.5C 568.5,668.5 568.5,669.5 568.5,670.5C 542.145,669.842 516.145,670.509 490.5,672.5C 489.549,671.081 489.216,669.415 489.5,667.5 Z"/></g>
<g><path style="opacity:0.577" fill="#ffb862" d="M 736.5,670.5 C 735.222,670.782 734.222,671.449 733.5,672.5C 733.719,671.325 733.386,670.325 732.5,669.5C 708.47,670.167 684.47,670.833 660.5,671.5C 660.5,671.167 660.5,670.833 660.5,670.5C 660.5,669.5 660.5,668.5 660.5,667.5C 686.167,667.5 711.833,667.5 737.5,667.5C 737.737,668.791 737.404,669.791 736.5,670.5 Z"/></g>
<g><path style="opacity:0.067" fill="#ffe2b2" d="M 983.5,666.5 C 984.338,666.842 984.672,667.508 984.5,668.5C 980.741,668.862 977.407,670.195 974.5,672.5C 974.5,671.833 974.167,671.5 973.5,671.5C 973.953,670.542 974.619,669.708 975.5,669C 978.102,667.86 980.769,667.027 983.5,666.5 Z"/></g>
<g><path style="opacity:1" fill="#fea210" d="M 733.5,672.5 C 727.833,681.833 722.167,691.167 716.5,700.5C 715.5,700.5 714.5,700.5 713.5,700.5C 713.543,697.912 714.543,695.746 716.5,694C 695.329,692.275 674.162,692.109 653,693.5C 652.5,693.167 652,692.833 651.5,692.5C 652.313,691.186 653.313,690.019 654.5,689C 653.027,688.29 652.36,687.124 652.5,685.5C 652.5,684.833 652.5,684.167 652.5,683.5C 654.429,681.94 655.762,679.94 656.5,677.5C 658.192,675.795 659.525,673.795 660.5,671.5C 684.47,670.833 708.47,670.167 732.5,669.5C 733.386,670.325 733.719,671.325 733.5,672.5 Z"/></g>
<g><path style="opacity:0.157" fill="#ffe6ce" d="M 660.5,670.5 C 660.5,670.833 660.5,671.167 660.5,671.5C 659.525,673.795 658.192,675.795 656.5,677.5C 656.351,676.448 656.517,675.448 657,674.5C 657.74,672.681 658.907,671.348 660.5,670.5 Z"/></g>
<g><path style="opacity:0.325" fill="#fee4b7" d="M 929.5,667.5 C 941.387,672.389 949.053,681.056 952.5,693.5C 952.737,694.791 952.404,695.791 951.5,696.5C 947.391,683.391 939.057,674.058 926.5,668.5C 927.209,667.596 928.209,667.263 929.5,667.5 Z"/></g>
<g><path style="opacity:0.184" fill="#ffdcb6" d="M 489.5,667.5 C 489.216,669.415 489.549,671.081 490.5,672.5C 493.927,677.016 496.593,682.016 498.5,687.5C 494.366,682.132 490.699,676.465 487.5,670.5C 487.64,668.97 488.307,667.97 489.5,667.5 Z"/></g>
<g><path style="opacity:0.927" fill="#fe7b06" d="M 1032.5,683.5 C 1025.17,683.5 1017.83,683.5 1010.5,683.5C 1009.62,674.341 1005.95,666.508 999.5,660C 1013.18,663.86 1024.18,671.693 1032.5,683.5 Z"/></g>
<g><path style="opacity:0.004" fill="#fff7e9" d="M 973.5,671.5 C 974.167,671.5 974.5,671.833 974.5,672.5C 971.461,675.54 968.127,678.206 964.5,680.5C 967.167,677.167 970.167,674.167 973.5,671.5 Z"/></g>
<g><path style="opacity:0.039" fill="#ffead6" d="M 656.5,677.5 C 655.762,679.94 654.429,681.94 652.5,683.5C 652.948,680.828 654.281,678.828 656.5,677.5 Z"/></g>
<g><path style="opacity:1" fill="#fea313" d="M 568.5,670.5 C 576.232,681.615 583.232,693.282 589.5,705.5C 589.423,706.75 588.756,707.583 587.5,708C 591.512,708.57 592.012,709.737 589,711.5C 577.225,710.177 565.225,709.511 553,709.5C 541.167,709.833 529.333,710.167 517.5,710.5C 518.894,711.687 518.727,712.354 517,712.5C 516.228,712.355 515.561,712.022 515,711.5C 514.855,708.509 513.355,706.842 510.5,706.5C 510.262,704.596 509.262,703.262 507.5,702.5C 505.717,696.729 502.717,691.729 498.5,687.5C 496.593,682.016 493.927,677.016 490.5,672.5C 516.145,670.509 542.145,669.842 568.5,670.5 Z"/></g>
<g><path style="opacity:0.024" fill="#ffe8d3" d="M 652.5,683.5 C 652.5,684.167 652.5,684.833 652.5,685.5C 651.728,686.694 650.728,687.694 649.5,688.5C 649.592,686.152 650.592,684.486 652.5,683.5 Z"/></g>
<g><path style="opacity:0.157" fill="#ffe6cd" d="M 649.5,688.5 C 649.771,690.38 649.104,691.713 647.5,692.5C 647.229,690.62 647.896,689.287 649.5,688.5 Z"/></g>
<g><path style="opacity:0.42" fill="#fee3b6" d="M 964.5,680.5 C 960.946,686.703 958.613,693.37 957.5,700.5C 956.319,697.638 956.319,694.638 957.5,691.5C 958.615,687.053 960.948,683.387 964.5,680.5 Z"/></g>
<g><path style="opacity:0.224" fill="#ffdebb" d="M 498.5,687.5 C 502.717,691.729 505.717,696.729 507.5,702.5C 504.794,699.467 502.294,696.134 500,692.5C 499.392,690.846 498.892,689.179 498.5,687.5 Z"/></g>
<g><path style="opacity:1" fill="#fda616" d="M 652.5,685.5 C 652.36,687.124 653.027,688.29 654.5,689C 653.313,690.019 652.313,691.186 651.5,692.5C 652,692.833 652.5,693.167 653,693.5C 674.162,692.109 695.329,692.275 716.5,694C 714.543,695.746 713.543,697.912 713.5,700.5C 714.5,700.5 715.5,700.5 716.5,700.5C 712.5,707.5 708.5,714.5 704.5,721.5C 703.609,722.11 702.609,722.443 701.5,722.5C 702.389,717.745 704.056,713.412 706.5,709.5C 686.121,709.821 665.787,709.488 645.5,708.5C 643.677,709.747 641.677,710.414 639.5,710.5C 639.5,709.5 639.5,708.5 639.5,707.5C 642.2,702.48 644.867,697.48 647.5,692.5C 649.104,691.713 649.771,690.38 649.5,688.5C 650.728,687.694 651.728,686.694 652.5,685.5 Z"/></g>
<g><path style="opacity:0.949" fill="#fd8f11" d="M 1010.5,683.5 C 1017.83,683.5 1025.17,683.5 1032.5,683.5C 1035.32,687.136 1037.66,691.136 1039.5,695.5C 1029.5,695.5 1019.5,695.5 1009.5,695.5C 1010.27,691.548 1010.61,687.548 1010.5,683.5 Z"/></g>
<g><path style="opacity:0.271" fill="#ffe7cf" d="M 568.5,667.5 C 569.5,667.5 570.5,667.5 571.5,667.5C 572.746,672.003 574.58,676.336 577,680.5C 589.694,701.851 602.361,723.184 615,744.5C 615.708,743.619 616.542,742.953 617.5,742.5C 617.397,745.564 616.064,746.564 613.5,745.5C 609.563,737.308 604.897,729.641 599.5,722.5C 596.415,716.661 593.082,710.994 589.5,705.5C 583.232,693.282 576.232,681.615 568.5,670.5C 568.5,669.5 568.5,668.5 568.5,667.5 Z"/></g>
<g><path style="opacity:0.886" fill="#fcc870" d="M 957.5,691.5 C 956.319,694.638 956.319,697.638 957.5,700.5C 957.5,701.833 957.5,703.167 957.5,704.5C 956.5,704.5 955.5,704.5 954.5,704.5C 955.084,701.715 954.084,700.048 951.5,699.5C 951.5,698.5 951.5,697.5 951.5,696.5C 952.404,695.791 952.737,694.791 952.5,693.5C 953.163,695.042 953.83,696.709 954.5,698.5C 954.974,695.783 955.974,693.45 957.5,691.5 Z"/></g>
<g><path style="opacity:0.967" fill="#fc9d18" d="M 1009.5,695.5 C 1019.5,695.5 1029.5,695.5 1039.5,695.5C 1040.58,698.402 1041.24,701.402 1041.5,704.5C 1029.5,704.5 1017.5,704.5 1005.5,704.5C 1007.11,701.618 1008.44,698.618 1009.5,695.5 Z"/></g>
<g><path style="opacity:0.251" fill="#ffe8d1" d="M 647.5,692.5 C 644.867,697.48 642.2,702.48 639.5,707.5C 638.728,708.694 637.728,709.694 636.5,710.5C 639.188,703.769 642.855,697.769 647.5,692.5 Z"/></g>
<g><path style="opacity:0.104" fill="#feeac8" d="M 951.5,699.5 C 954.084,700.048 955.084,701.715 954.5,704.5C 955.5,704.5 956.5,704.5 957.5,704.5C 957.5,705.5 957.5,706.5 957.5,707.5C 955.833,707.5 954.167,707.5 952.5,707.5C 952.599,704.763 952.265,702.096 951.5,699.5 Z"/></g>
<g><path style="opacity:1" fill="#fca91c" d="M 589.5,705.5 C 593.082,710.994 596.415,716.661 599.5,722.5C 599.539,723.583 599.873,724.583 600.5,725.5C 599.758,726.287 598.925,726.953 598,727.5C 596.13,726.257 593.964,725.59 591.5,725.5C 588.957,725.64 586.623,726.306 584.5,727.5C 576.832,726.199 568.999,725.532 561,725.5C 553.5,725.833 546,726.167 538.5,726.5C 534.388,726.935 530.555,727.935 527,729.5C 526.329,728.748 525.496,728.414 524.5,728.5C 523.833,728.167 523.167,727.833 522.5,727.5C 519.257,720.007 515.257,713.007 510.5,706.5C 513.355,706.842 514.855,708.509 515,711.5C 515.561,712.022 516.228,712.355 517,712.5C 518.727,712.354 518.894,711.687 517.5,710.5C 529.333,710.167 541.167,709.833 553,709.5C 565.225,709.511 577.225,710.177 589,711.5C 592.012,709.737 591.512,708.57 587.5,708C 588.756,707.583 589.423,706.75 589.5,705.5 Z"/></g>
<g><path style="opacity:1" fill="#fca91c" d="M 639.5,707.5 C 639.5,708.5 639.5,709.5 639.5,710.5C 641.677,710.414 643.677,709.747 645.5,708.5C 665.787,709.488 686.121,709.821 706.5,709.5C 704.056,713.412 702.389,717.745 701.5,722.5C 699.692,723.918 699.025,725.918 699.5,728.5C 688.257,726.697 676.923,725.697 665.5,725.5C 658.664,725.539 651.997,726.206 645.5,727.5C 641.069,725.475 636.402,724.975 631.5,726C 630.953,726.925 630.287,727.758 629.5,728.5C 628.893,728.376 628.56,728.043 628.5,727.5C 629.566,725.299 630.233,722.965 630.5,720.5C 632.822,719.198 634.155,717.198 634.5,714.5C 636.104,713.713 636.771,712.38 636.5,710.5C 637.728,709.694 638.728,708.694 639.5,707.5 Z"/></g>
<g><path style="opacity:0.968" fill="#fbae21" d="M 1005.5,704.5 C 1017.5,704.5 1029.5,704.5 1041.5,704.5C 1043.14,708.21 1043.8,712.21 1043.5,716.5C 1028.17,716.5 1012.83,716.5 997.5,716.5C 999.774,712.228 1002.44,708.228 1005.5,704.5 Z"/></g>
<g><path style="opacity:0.2" fill="#ffe4c4" d="M 636.5,710.5 C 636.771,712.38 636.104,713.713 634.5,714.5C 634.229,712.62 634.896,711.287 636.5,710.5 Z"/></g>
<g><path style="opacity:0.302" fill="#ffdcb5" d="M 507.5,702.5 C 509.262,703.262 510.262,704.596 510.5,706.5C 515.257,713.007 519.257,720.007 522.5,727.5C 516.59,719.854 511.59,711.52 507.5,702.5 Z"/></g>
<g><path style="opacity:0.345" fill="#feddb6" d="M 634.5,714.5 C 634.155,717.198 632.822,719.198 630.5,720.5C 631.298,718.034 632.631,716.034 634.5,714.5 Z"/></g>
<g><path style="opacity:0.977" fill="#fabc28" d="M 997.5,716.5 C 1012.83,716.5 1028.17,716.5 1043.5,716.5C 1043.5,720.167 1043.5,723.833 1043.5,727.5C 1026.5,727.5 1009.5,727.5 992.5,727.5C 993.594,723.541 995.261,719.875 997.5,716.5 Z"/></g>
<g><path style="opacity:0.345" fill="#fee2be" d="M 522.5,727.5 C 523.167,727.833 523.833,728.167 524.5,728.5C 529.283,736.611 533.616,744.945 537.5,753.5C 531.468,745.438 526.468,736.771 522.5,727.5 Z"/></g>
<g><path style="opacity:0.118" fill="#ffdeb5" d="M 630.5,720.5 C 630.233,722.965 629.566,725.299 628.5,727.5C 626.167,730.167 623.833,732.833 621.5,735.5C 624.128,730.221 627.128,725.221 630.5,720.5 Z"/></g>
<g><path style="opacity:1" fill="#fbae27" d="M 704.5,721.5 C 695.781,736.593 686.781,751.593 677.5,766.5C 676.503,766.53 675.836,766.03 675.5,765C 676.285,762.314 677.118,759.814 678,757.5C 634.239,758.497 590.406,758.83 546.5,758.5C 546.843,760.483 546.176,761.817 544.5,762.5C 543.31,760.131 541.643,758.131 539.5,756.5C 539.573,754.973 538.906,753.973 537.5,753.5C 533.616,744.945 529.283,736.611 524.5,728.5C 525.496,728.414 526.329,728.748 527,729.5C 530.555,727.935 534.388,726.935 538.5,726.5C 546,726.167 553.5,725.833 561,725.5C 568.999,725.532 576.832,726.199 584.5,727.5C 586.623,726.306 588.957,725.64 591.5,725.5C 593.964,725.59 596.13,726.257 598,727.5C 598.925,726.953 599.758,726.287 600.5,725.5C 599.873,724.583 599.539,723.583 599.5,722.5C 604.897,729.641 609.563,737.308 613.5,745.5C 616.064,746.564 617.397,745.564 617.5,742.5C 618.906,742.027 619.573,741.027 619.5,739.5C 619.733,737.938 620.4,736.605 621.5,735.5C 623.833,732.833 626.167,730.167 628.5,727.5C 628.56,728.043 628.893,728.376 629.5,728.5C 630.287,727.758 630.953,726.925 631.5,726C 636.402,724.975 641.069,725.475 645.5,727.5C 651.997,726.206 658.664,725.539 665.5,725.5C 676.923,725.697 688.257,726.697 699.5,728.5C 699.025,725.918 699.692,723.918 701.5,722.5C 702.609,722.443 703.609,722.11 704.5,721.5 Z"/></g>
<g><path style="opacity:0.188" fill="#fee8ce" d="M 619.5,739.5 C 619.573,741.027 618.906,742.027 617.5,742.5C 617.427,740.973 618.094,739.973 619.5,739.5 Z"/></g>
<g><path style="opacity:0.919" fill="#fac42c" d="M 992.5,727.5 C 1009.5,727.5 1026.5,727.5 1043.5,727.5C 1042.67,735.334 1040.67,742.834 1037.5,750C 1041.48,748.373 1044.64,745.54 1047,741.5C 1049.54,735.534 1051.88,729.534 1054,723.5C 1060.28,732.171 1064.11,741.838 1065.5,752.5C 1052.83,752.5 1040.17,752.5 1027.5,752.5C 1023.46,744.618 1017.46,739.118 1009.5,736C 1013.23,741.243 1014.39,747.076 1013,753.5C 1011.97,756.239 1010.47,758.572 1008.5,760.5C 993.833,760.5 979.167,760.5 964.5,760.5C 964.799,741.087 971.799,724.587 985.5,711C 988.21,708.589 991.21,707.756 994.5,708.5C 986.554,717.851 984.388,728.517 988,740.5C 989.035,735.892 990.535,731.559 992.5,727.5 Z"/></g>
<g><path style="opacity:0.98" fill="#fabd28" d="M 1027.5,752.5 C 1040.17,752.5 1052.83,752.5 1065.5,752.5C 1065.5,756.833 1065.5,761.167 1065.5,765.5C 1053.5,765.5 1041.5,765.5 1029.5,765.5C 1029.73,761.007 1029.06,756.674 1027.5,752.5 Z"/></g>
<g><path style="opacity:0.071" fill="#fee6cb" d="M 537.5,753.5 C 538.906,753.973 539.573,754.973 539.5,756.5C 538.094,756.027 537.427,755.027 537.5,753.5 Z"/></g>
<g><path style="opacity:0.153" fill="#fee6c8" d="M 736.5,670.5 C 715.275,707.498 693.608,744.165 671.5,780.5C 670.5,781.167 669.5,781.833 668.5,782.5C 668.5,782.167 668.5,781.833 668.5,781.5C 671.752,776.666 674.752,771.666 677.5,766.5C 686.781,751.593 695.781,736.593 704.5,721.5C 708.5,714.5 712.5,707.5 716.5,700.5C 722.167,691.167 727.833,681.833 733.5,672.5C 734.222,671.449 735.222,670.782 736.5,670.5 Z"/></g>
<g><path style="opacity:1" fill="#f9af2e" d="M 677.5,766.5 C 674.752,771.666 671.752,776.666 668.5,781.5C 654.833,781.5 641.167,781.5 627.5,781.5C 627.263,782.791 627.596,783.791 628.5,784.5C 629.5,784.5 630.5,784.5 631.5,784.5C 632.15,786.435 632.483,788.435 632.5,790.5C 631.094,790.973 630.427,791.973 630.5,793.5C 627.916,797.666 625.583,802 623.5,806.5C 622.094,806.973 621.427,807.973 621.5,809.5C 619.953,810.768 618.953,812.435 618.5,814.5C 613.457,806.77 608.624,798.77 604,790.5C 603.211,788.288 603.378,786.288 604.5,784.5C 604.833,784.5 605.167,784.5 605.5,784.5C 606.5,784.5 607.5,784.5 608.5,784.5C 608.5,783.5 608.5,782.5 608.5,781.5C 597.5,781.5 586.5,781.5 575.5,781.5C 575.263,782.791 575.596,783.791 576.5,784.5C 578.5,784.5 580.5,784.5 582.5,784.5C 585.213,786.214 587.213,788.547 588.5,791.5C 588.427,793.027 589.094,794.027 590.5,794.5C 592.025,796.216 593.025,798.216 593.5,800.5C 592.905,803.113 592.071,803.113 591,800.5C 590.517,801.448 590.351,802.448 590.5,803.5C 583.833,803.5 577.167,803.5 570.5,803.5C 570.5,804.5 570.5,805.5 570.5,806.5C 568.659,802.817 566.326,799.484 563.5,796.5C 563.108,794.821 562.608,793.154 562,791.5C 558.144,785.768 554.31,780.101 550.5,774.5C 548.952,774.179 548.285,773.179 548.5,771.5C 547.439,768.378 546.105,765.378 544.5,762.5C 546.176,761.817 546.843,760.483 546.5,758.5C 590.406,758.83 634.239,758.497 678,757.5C 677.118,759.814 676.285,762.314 675.5,765C 675.836,766.03 676.503,766.53 677.5,766.5 Z"/></g>
<g><path style="opacity:0.939" fill="#fbb324" d="M 964.5,760.5 C 979.167,760.5 993.833,760.5 1008.5,760.5C 1005.07,766.455 1002.4,772.788 1000.5,779.5C 999.914,779.291 999.414,778.957 999,778.5C 998.833,776.333 998.667,774.167 998.5,772C 998.545,768.313 999.045,764.813 1000,761.5C 996.197,765.455 993.03,769.788 990.5,774.5C 981.833,774.5 973.167,774.5 964.5,774.5C 964.5,769.833 964.5,765.167 964.5,760.5 Z"/></g>
<g><path style="opacity:0.216" fill="#fee0bc" d="M 539.5,756.5 C 541.643,758.131 543.31,760.131 544.5,762.5C 546.105,765.378 547.439,768.378 548.5,771.5C 544.341,767.309 541.341,762.309 539.5,756.5 Z"/></g>
<g><path style="opacity:0.959" fill="#fbae21" d="M 1029.5,765.5 C 1041.5,765.5 1053.5,765.5 1065.5,765.5C 1065.5,768.5 1065.5,771.5 1065.5,774.5C 1056.83,774.5 1048.17,774.5 1039.5,774.5C 1038.44,773.4 1037.61,772.066 1037,770.5C 1035.94,776.702 1032.78,781.369 1027.5,784.5C 1027.17,784.167 1026.83,783.833 1026.5,783.5C 1028.94,777.749 1029.94,771.749 1029.5,765.5 Z"/></g>
<g><path style="opacity:0.357" fill="#fddeb5" d="M 550.5,774.5 C 554.31,780.101 558.144,785.768 562,791.5C 562.608,793.154 563.108,794.821 563.5,796.5C 557.696,790.153 553.362,782.819 550.5,774.5 Z"/></g>
<g><path style="opacity:0.951" fill="#fca11b" d="M 964.5,774.5 C 973.167,774.5 981.833,774.5 990.5,774.5C 990.142,777.267 989.475,779.933 988.5,782.5C 980.833,782.5 973.167,782.5 965.5,782.5C 965.167,779.833 964.833,777.167 964.5,774.5 Z"/></g>
<g><path style="opacity:0.944" fill="#fca11b" d="M 1039.5,774.5 C 1048.17,774.5 1056.83,774.5 1065.5,774.5C 1065.04,777.221 1064.37,779.888 1063.5,782.5C 1056.17,782.5 1048.83,782.5 1041.5,782.5C 1041.04,779.779 1040.37,777.112 1039.5,774.5 Z"/></g>
<g><path style="opacity:0.139" fill="#b6b8bc" d="M 701.5,782.5 C 698.615,782.806 695.948,782.473 693.5,781.5C 695.913,779.949 698.579,779.283 701.5,779.5C 701.5,780.5 701.5,781.5 701.5,782.5 Z"/></g>
<g><path style="opacity:1" fill="#c79834" d="M 605.5,784.5 C 601.049,783.173 596.216,782.506 591,782.5C 585.784,782.506 580.951,783.173 576.5,784.5C 575.596,783.791 575.263,782.791 575.5,781.5C 586.5,781.5 597.5,781.5 608.5,781.5C 608.5,782.5 608.5,783.5 608.5,784.5C 607.5,784.5 606.5,784.5 605.5,784.5 Z"/></g>
<g><path style="opacity:1" fill="#ce9e32" d="M 668.5,781.5 C 668.5,781.833 668.5,782.167 668.5,782.5C 654.791,781.852 641.458,782.519 628.5,784.5C 627.596,783.791 627.263,782.791 627.5,781.5C 641.167,781.5 654.833,781.5 668.5,781.5 Z"/></g>
<g><path style="opacity:0.971" fill="#283444" d="M 717.5,781.5 C 725.833,781.5 734.167,781.5 742.5,781.5C 742.5,782.833 742.5,784.167 742.5,785.5C 741.5,785.5 740.5,785.5 739.5,785.5C 737.975,784.611 736.975,785.278 736.5,787.5C 736.089,811.427 735.089,835.427 733.5,859.5C 729.583,865.133 724.25,868.799 717.5,870.5C 716.167,870.167 714.833,869.833 713.5,869.5C 718.225,865.977 720.891,861.311 721.5,855.5C 722.222,855.082 722.722,854.416 723,853.5C 723.829,831.663 723.663,809.996 722.5,788.5C 721.974,786.77 720.974,785.436 719.5,784.5C 718.449,783.778 717.782,782.778 717.5,781.5 Z"/></g>
<g><path style="opacity:0.302" fill="#c0c2c6" d="M 754.5,779.5 C 756.579,779.971 758.579,780.637 760.5,781.5C 758.735,782.461 756.735,782.795 754.5,782.5C 754.5,781.5 754.5,780.5 754.5,779.5 Z"/></g>
<g><path style="opacity:0.95" fill="#2c3747" d="M 754.5,779.5 C 754.5,780.5 754.5,781.5 754.5,782.5C 756.735,782.795 758.735,782.461 760.5,781.5C 774.167,781.5 787.833,781.5 801.5,781.5C 802.568,782.434 803.901,782.768 805.5,782.5C 794.194,803.107 782.86,823.774 771.5,844.5C 769.896,845.287 769.229,846.62 769.5,848.5C 778.839,848.666 788.173,848.5 797.5,848C 798.381,847.292 799.047,846.458 799.5,845.5C 801.765,843.771 803.765,841.771 805.5,839.5C 806.147,840.274 806.48,841.274 806.5,842.5C 804.981,845.601 804.315,848.934 804.5,852.5C 787.167,852.5 769.833,852.5 752.5,852.5C 753.342,847.822 755.009,843.488 757.5,839.5C 761.907,833.315 765.574,826.648 768.5,819.5C 770.588,817.664 771.921,815.331 772.5,812.5C 772.5,812.167 772.5,811.833 772.5,811.5C 777.842,805.482 782.175,798.815 785.5,791.5C 787.185,790.816 788.185,789.483 788.5,787.5C 788.145,786.478 787.478,785.811 786.5,785.5C 781.376,784.171 775.876,783.505 770,783.5C 764.5,783.667 759,783.833 753.5,784C 754.365,785.359 755.365,786.526 756.5,787.5C 756.5,787.833 756.5,788.167 756.5,788.5C 755.058,789.82 754.392,791.486 754.5,793.5C 753.5,793.5 752.5,793.5 751.5,793.5C 751.5,788.833 751.5,784.167 751.5,779.5C 752.5,779.5 753.5,779.5 754.5,779.5 Z"/></g>
<g><path style="opacity:0.948" fill="#2c3647" d="M 819.5,781.5 C 827.167,781.5 834.833,781.5 842.5,781.5C 841.527,783.149 840.527,784.816 839.5,786.5C 838.337,806.663 838.171,826.996 839,847.5C 839.717,848.044 840.217,848.711 840.5,849.5C 841.551,850.222 842.218,851.222 842.5,852.5C 835.167,852.5 827.833,852.5 820.5,852.5C 821.167,850.833 821.833,849.167 822.5,847.5C 823.458,847.047 824.292,846.381 825,845.5C 825.667,826.5 825.667,807.5 825,788.5C 823.279,785.961 821.446,783.628 819.5,781.5 Z"/></g>
<g><path style="opacity:0.935" fill="#2f3a4a" d="M 856.5,781.5 C 864.167,781.5 871.833,781.5 879.5,781.5C 878.833,783.167 878.167,784.833 877.5,786.5C 876.503,806.66 876.17,826.993 876.5,847.5C 884.261,849.187 891.927,848.687 899.5,846C 902.118,843.894 904.118,841.394 905.5,838.5C 906.523,836.094 907.19,836.094 907.5,838.5C 905.765,842.946 904.765,847.613 904.5,852.5C 888.833,852.5 873.167,852.5 857.5,852.5C 858.075,850.589 859.075,848.922 860.5,847.5C 861.117,847.389 861.617,847.056 862,846.5C 862.667,826.833 862.667,807.167 862,787.5C 861.617,786.944 861.117,786.611 860.5,786.5C 860.167,785.833 859.833,785.167 859.5,784.5C 858.1,783.9 857.1,782.9 856.5,781.5 Z"/></g>
<g><path style="opacity:0.561" fill="#858991" d="M 879.5,781.5 C 881.167,781.5 882.833,781.5 884.5,781.5C 884.5,782.833 884.5,784.167 884.5,785.5C 882.379,785.325 880.379,785.659 878.5,786.5C 878.167,786.5 877.833,786.5 877.5,786.5C 878.167,784.833 878.833,783.167 879.5,781.5 Z"/></g>
<g><path style="opacity:1" fill="#645641" d="M 605.5,784.5 C 605.167,784.5 604.833,784.5 604.5,784.5C 597.167,783.167 589.833,783.167 582.5,784.5C 580.5,784.5 578.5,784.5 576.5,784.5C 580.951,783.173 585.784,782.506 591,782.5C 596.216,782.506 601.049,783.173 605.5,784.5 Z"/></g>
<g><path style="opacity:1" fill="#6f5d43" d="M 671.5,780.5 C 671.5,780.833 671.5,781.167 671.5,781.5C 671.5,781.833 671.5,782.167 671.5,782.5C 666.065,783.123 660.732,783.79 655.5,784.5C 651.833,784.5 648.167,784.5 644.5,784.5C 640.167,783.167 635.833,783.167 631.5,784.5C 630.5,784.5 629.5,784.5 628.5,784.5C 641.458,782.519 654.791,781.852 668.5,782.5C 669.5,781.833 670.5,781.167 671.5,780.5 Z"/></g>
<g><path style="opacity:0.579" fill="#94989e" d="M 856.5,781.5 C 857.1,782.9 858.1,783.9 859.5,784.5C 858.508,784.328 857.842,784.662 857.5,785.5C 855.833,785.5 854.167,785.5 852.5,785.5C 852.5,784.167 852.5,782.833 852.5,781.5C 853.833,781.5 855.167,781.5 856.5,781.5 Z"/></g>
<g><path style="opacity:1" fill="#1a2638" d="M 671.5,781.5 C 678.5,781.5 685.5,781.5 692.5,781.5C 693.918,783.308 695.918,783.975 698.5,783.5C 698.799,785.604 698.466,787.604 697.5,789.5C 696.817,789.137 696.15,788.804 695.5,788.5C 694.5,787.833 693.5,787.167 692.5,786.5C 685.988,785.833 679.321,785.167 672.5,784.5C 672.137,783.817 671.804,783.15 671.5,782.5C 671.5,782.167 671.5,781.833 671.5,781.5 Z"/></g>
<g><path style="opacity:0.682" fill="#868a91" d="M 717.5,781.5 C 717.782,782.778 718.449,783.778 719.5,784.5C 718.508,784.328 717.842,784.662 717.5,785.5C 715.833,785.5 714.167,785.5 712.5,785.5C 712.5,784.167 712.5,782.833 712.5,781.5C 714.167,781.5 715.833,781.5 717.5,781.5 Z"/></g>
<g><path style="opacity:0.106" fill="#bec1c3" d="M 742.5,781.5 C 743.586,781.62 744.253,782.287 744.5,783.5C 744.253,784.713 743.586,785.38 742.5,785.5C 742.5,784.167 742.5,782.833 742.5,781.5 Z"/></g>
<g><path style="opacity:1" fill="#152133" d="M 786.5,785.5 C 776.311,784.943 766.311,785.609 756.5,787.5C 755.365,786.526 754.365,785.359 753.5,784C 759,783.833 764.5,783.667 770,783.5C 775.876,783.505 781.376,784.171 786.5,785.5 Z"/></g>
<g><path style="opacity:0.655" fill="#9ca0a6" d="M 942.5,779.5 C 943.822,779.33 944.989,779.663 946,780.5C 947.192,784.203 948.359,787.87 949.5,791.5C 947.177,788.865 945.344,785.865 944,782.5C 943.768,783.737 943.268,784.737 942.5,785.5C 942.5,783.5 942.5,781.5 942.5,779.5 Z"/></g>
<g><path style="opacity:0.424" fill="#777d84" d="M 692.5,781.5 C 692.833,781.5 693.167,781.5 693.5,781.5C 695.948,782.473 698.615,782.806 701.5,782.5C 701.5,787.167 701.5,791.833 701.5,796.5C 700.5,796.5 699.5,796.5 698.5,796.5C 698.5,794.833 698.5,793.167 698.5,791.5C 697.5,791.5 696.5,791.5 695.5,791.5C 695.5,791.167 695.5,790.833 695.5,790.5C 695.5,789.833 695.5,789.167 695.5,788.5C 696.15,788.804 696.817,789.137 697.5,789.5C 698.466,787.604 698.799,785.604 698.5,783.5C 695.918,783.975 693.918,783.308 692.5,781.5 Z"/></g>
<g><path style="opacity:0.267" fill="#858990" d="M 842.5,781.5 C 844.167,781.5 845.833,781.5 847.5,781.5C 847.5,782.833 847.5,784.167 847.5,785.5C 845.379,785.325 843.379,785.659 841.5,786.5C 840.833,786.5 840.167,786.5 839.5,786.5C 840.527,784.816 841.527,783.149 842.5,781.5 Z"/></g>
<g><path style="opacity:0.96" fill="#2b3647" d="M 671.5,782.5 C 671.804,783.15 672.137,783.817 672.5,784.5C 679.321,785.167 685.988,785.833 692.5,786.5C 685.833,786.5 679.167,786.5 672.5,786.5C 672.5,796.5 672.5,806.5 672.5,816.5C 677.844,816.666 683.177,816.499 688.5,816C 690.5,814.667 692.167,813 693.5,811C 694.448,810.517 695.448,810.351 696.5,810.5C 696.5,815.167 696.5,819.833 696.5,824.5C 694.022,823.805 692.022,822.305 690.5,820C 688.934,819.235 687.601,819.402 686.5,820.5C 682.601,821.791 678.601,821.791 674.5,820.5C 673.791,819.596 672.791,819.263 671.5,819.5C 671.173,829.015 671.506,838.348 672.5,847.5C 678.653,848.653 684.986,848.82 691.5,848C 696.721,846.28 700.054,842.78 701.5,837.5C 702.586,837.62 703.253,838.287 703.5,839.5C 702.757,843.928 701.757,848.261 700.5,852.5C 684.833,852.5 669.167,852.5 653.5,852.5C 654.759,851.021 655.759,849.354 656.5,847.5C 657.458,847.047 658.292,846.381 659,845.5C 659.829,826.329 659.662,807.329 658.5,788.5C 657.789,786.97 656.789,785.637 655.5,784.5C 660.732,783.79 666.065,783.123 671.5,782.5 Z"/></g>
<g><path style="opacity:0.71" fill="#626a75" d="M 786.5,785.5 C 787.478,785.811 788.145,786.478 788.5,787.5C 788.185,789.483 787.185,790.816 785.5,791.5C 786.301,789.958 786.634,788.292 786.5,786.5C 778.16,786.334 769.827,786.5 761.5,787C 760.748,787.671 760.414,788.504 760.5,789.5C 759.833,789.5 759.167,789.5 758.5,789.5C 758.158,788.662 757.492,788.328 756.5,788.5C 756.5,788.167 756.5,787.833 756.5,787.5C 766.311,785.609 776.311,784.943 786.5,785.5 Z"/></g>
<g><path style="opacity:0.095" fill="#edeeef" d="M 859.5,784.5 C 859.833,785.167 860.167,785.833 860.5,786.5C 860.737,787.791 860.404,788.791 859.5,789.5C 859.267,787.938 858.6,786.605 857.5,785.5C 857.842,784.662 858.508,784.328 859.5,784.5 Z"/></g>
<g><path style="opacity:1" fill="#2e3748" d="M 604.5,784.5 C 603.378,786.288 603.211,788.288 604,790.5C 608.624,798.77 613.457,806.77 618.5,814.5C 616.916,825.753 616.25,837.086 616.5,848.5C 614.167,848.5 611.833,848.5 609.5,848.5C 609.51,839.211 609.177,829.878 608.5,820.5C 607.833,828.99 607.167,837.324 606.5,845.5C 606.666,836.827 606.5,828.16 606,819.5C 605.623,818.058 604.79,817.058 603.5,816.5C 600.771,812.046 598.271,807.38 596,802.5C 595.292,801.619 594.458,800.953 593.5,800.5C 593.025,798.216 592.025,796.216 590.5,794.5C 590.573,792.973 589.906,791.973 588.5,791.5C 587.213,788.547 585.213,786.214 582.5,784.5C 589.833,783.167 597.167,783.167 604.5,784.5 Z"/></g>
<g><path style="opacity:0.988" fill="#8a6c3f" d="M 631.5,784.5 C 632.947,785.134 633.613,786.301 633.5,788C 633.472,789.07 633.139,789.903 632.5,790.5C 632.483,788.435 632.15,786.435 631.5,784.5 Z"/></g>
<g><path style="opacity:0.238" fill="#c4c5c9" d="M 785.5,791.5 C 782.175,798.815 777.842,805.482 772.5,811.5C 776.372,803.614 780.706,795.947 785.5,788.5C 777.855,787.335 770.188,787.169 762.5,788C 761.956,788.717 761.289,789.217 760.5,789.5C 760.414,788.504 760.748,787.671 761.5,787C 769.827,786.5 778.16,786.334 786.5,786.5C 786.634,788.292 786.301,789.958 785.5,791.5 Z"/></g>
<g><path style="opacity:0.94" fill="#fc9415" d="M 965.5,782.5 C 973.167,782.5 980.833,782.5 988.5,782.5C 988.599,785.237 988.265,787.904 987.5,790.5C 981.167,790.5 974.833,790.5 968.5,790.5C 967.5,787.833 966.5,785.167 965.5,782.5 Z"/></g>
<g><path style="opacity:0.926" fill="#fc9415" d="M 1041.5,782.5 C 1048.83,782.5 1056.17,782.5 1063.5,782.5C 1062.68,785.48 1061.34,788.147 1059.5,790.5C 1053.83,790.5 1048.17,790.5 1042.5,790.5C 1042.72,787.721 1042.39,785.054 1041.5,782.5 Z"/></g>
<g><path style="opacity:0.549" fill="#848a92" d="M 736.5,787.5 C 736.169,810.339 736.503,833.006 737.5,855.5C 737.5,856.167 737.167,856.5 736.5,856.5C 735.1,857.1 734.1,858.1 733.5,859.5C 735.089,835.427 736.089,811.427 736.5,787.5 Z"/></g>
<g><path style="opacity:0.157" fill="#ccced0" d="M 942.5,779.5 C 942.5,781.5 942.5,783.5 942.5,785.5C 939.128,794.366 935.461,803.033 931.5,811.5C 930.506,814.124 929.506,816.79 928.5,819.5C 925.152,823.53 923.152,828.197 922.5,833.5C 921.596,834.209 921.263,835.209 921.5,836.5C 918.878,839.824 916.711,843.49 915,847.5C 913.959,849.311 912.793,849.645 911.5,848.5C 923.145,826.157 933.478,803.157 942.5,779.5 Z"/></g>
<g><path style="opacity:0.966" fill="#2d3848" d="M 949.5,791.5 C 950.718,796.266 952.718,800.599 955.5,804.5C 955.989,805.995 956.655,807.329 957.5,808.5C 958.338,808.842 958.672,809.508 958.5,810.5C 959.449,815.72 961.449,820.386 964.5,824.5C 964.896,827.721 966.229,830.388 968.5,832.5C 968.908,836.858 970.575,840.525 973.5,843.5C 973.615,845.947 974.615,847.947 976.5,849.5C 977.9,850.1 978.9,851.1 979.5,852.5C 971.167,852.5 962.833,852.5 954.5,852.5C 955.481,850.511 956.481,848.511 957.5,846.5C 955.672,842.155 954.006,837.822 952.5,833.5C 952.389,832.883 952.056,832.383 951.5,832C 943.841,831.5 936.174,831.334 928.5,831.5C 929.21,829.254 929.71,826.92 930,824.5C 930.383,823.944 930.883,823.611 931.5,823.5C 930.962,825.117 930.629,826.784 930.5,828.5C 936.645,829.49 942.978,829.823 949.5,829.5C 949.795,827.265 949.461,825.265 948.5,823.5C 946.312,817.062 943.979,810.728 941.5,804.5C 940.178,804.33 939.011,804.663 938,805.5C 937.802,807.382 937.302,809.048 936.5,810.5C 936.785,808.712 936.452,807.045 935.5,805.5C 934.508,807.807 933.175,809.807 931.5,811.5C 935.461,803.033 939.128,794.366 942.5,785.5C 943.268,784.737 943.768,783.737 944,782.5C 945.344,785.865 947.177,788.865 949.5,791.5 Z"/></g>
<g><path style="opacity:0.121" fill="#d7d7d9" d="M 739.5,785.5 C 739.291,786.922 738.791,788.255 738,789.5C 737.5,811.497 737.333,833.497 737.5,855.5C 736.503,833.006 736.169,810.339 736.5,787.5C 736.975,785.278 737.975,784.611 739.5,785.5 Z"/></g>
<g><path style="opacity:0.969" fill="#8a6a3f" d="M 632.5,790.5 C 632.573,792.027 631.906,793.027 630.5,793.5C 630.427,791.973 631.094,790.973 632.5,790.5 Z"/></g>
<g><path style="opacity:0.569" fill="#898d94" d="M 819.5,781.5 C 821.446,783.628 823.279,785.961 825,788.5C 825.667,807.5 825.667,826.5 825,845.5C 824.292,846.381 823.458,847.047 822.5,847.5C 822.667,827.497 822.5,807.497 822,787.5C 820.211,785.771 818.044,785.104 815.5,785.5C 815.5,784.167 815.5,782.833 815.5,781.5C 816.833,781.5 818.167,781.5 819.5,781.5 Z"/></g>
<g><path style="opacity:0.929" fill="#926e3e" d="M 588.5,791.5 C 589.906,791.973 590.573,792.973 590.5,794.5C 589.094,794.027 588.427,793.027 588.5,791.5 Z"/></g>
<g><path style="opacity:0.419" fill="#91959b" d="M 756.5,788.5 C 757.492,788.328 758.158,788.662 758.5,789.5C 755.924,791.888 754.924,794.888 755.5,798.5C 754.167,798.5 752.833,798.5 751.5,798.5C 751.5,796.833 751.5,795.167 751.5,793.5C 752.5,793.5 753.5,793.5 754.5,793.5C 754.392,791.486 755.058,789.82 756.5,788.5 Z"/></g>
<g><path style="opacity:0.914" fill="#fd880e" d="M 968.5,790.5 C 974.833,790.5 981.167,790.5 987.5,790.5C 987.575,793.206 987.908,795.873 988.5,798.5C 983.167,798.5 977.833,798.5 972.5,798.5C 970.642,796.117 969.308,793.45 968.5,790.5 Z"/></g>
<g><path style="opacity:0.902" fill="#fd820c" d="M 1042.5,790.5 C 1048.17,790.5 1053.83,790.5 1059.5,790.5C 1053.25,804.262 1042.91,813.096 1028.5,817C 1037.76,810.657 1042.42,801.823 1042.5,790.5 Z"/></g>
<g><path style="opacity:0.078" fill="#dededf" d="M 877.5,786.5 C 877.833,786.5 878.167,786.5 878.5,786.5C 877.513,806.424 877.179,826.424 877.5,846.5C 883.388,847.012 889.055,846.345 894.5,844.5C 894.5,845.5 894.5,846.5 894.5,847.5C 888.5,847.5 882.5,847.5 876.5,847.5C 876.17,826.993 876.503,806.66 877.5,786.5 Z"/></g>
<g><path style="opacity:0.961" fill="#916e3d" d="M 636.5,794.5 C 636.573,796.027 635.906,797.027 634.5,797.5C 634.427,795.973 635.094,794.973 636.5,794.5 Z"/></g>
<g><path style="opacity:1" fill="#132032" d="M 669.5,786.5 C 670.828,791.119 671.494,796.119 671.5,801.5C 671.167,806.5 670.833,811.5 670.5,816.5C 669.501,806.522 669.168,796.522 669.5,786.5 Z"/></g>
<g><path style="opacity:0.341" fill="#b7b9bd" d="M 717.5,785.5 C 717.842,784.662 718.508,784.328 719.5,784.5C 720.974,785.436 721.974,786.77 722.5,788.5C 722.802,810.866 722.468,833.2 721.5,855.5C 720.891,861.311 718.225,865.977 713.5,869.5C 714.833,869.833 716.167,870.167 717.5,870.5C 724.25,868.799 729.583,865.133 733.5,859.5C 734.1,858.1 735.1,857.1 736.5,856.5C 731.047,868.44 721.714,874.107 708.5,873.5C 708.383,871.516 709.05,869.85 710.5,868.5C 717.732,864.355 720.899,858.022 720,849.5C 720.667,829.5 720.667,809.5 720,789.5C 719.8,787.68 718.966,786.347 717.5,785.5 Z"/></g>
<g><path style="opacity:0.275" fill="#b3b5b9" d="M 949.5,791.5 C 952.643,795.242 954.643,799.575 955.5,804.5C 952.718,800.599 950.718,796.266 949.5,791.5 Z"/></g>
<g><path style="opacity:0.02" fill="#d3d4d6" d="M 839.5,786.5 C 840.167,786.5 840.833,786.5 841.5,786.5C 840.346,806.427 840.18,826.427 841,846.5C 841.278,847.416 841.778,848.082 842.5,848.5C 842.158,849.338 841.492,849.672 840.5,849.5C 840.217,848.711 839.717,848.044 839,847.5C 838.171,826.996 838.337,806.663 839.5,786.5 Z"/></g>
<g><path style="opacity:0.016" fill="#cbcdcf" d="M 695.5,791.5 C 696.5,791.5 697.5,791.5 698.5,791.5C 698.5,793.167 698.5,794.833 698.5,796.5C 699.5,796.5 700.5,796.5 701.5,796.5C 701.5,797.5 701.5,798.5 701.5,799.5C 700.167,799.5 698.833,799.5 697.5,799.5C 697.893,796.487 697.226,793.82 695.5,791.5 Z"/></g>
<g><path style="opacity:0.992" fill="#b68139" d="M 634.5,797.5 C 634.408,799.848 633.408,801.514 631.5,802.5C 631.75,800.326 632.75,798.659 634.5,797.5 Z"/></g>
<g><path style="opacity:1" fill="#f7a62c" d="M 644.5,784.5 C 648.167,784.5 651.833,784.5 655.5,784.5C 656.789,785.637 657.789,786.97 658.5,788.5C 658.774,793.263 658.441,797.93 657.5,802.5C 655.836,804.408 654.169,806.408 652.5,808.5C 652.719,807.325 652.386,806.325 651.5,805.5C 650.585,807.918 649.085,809.918 647,811.5C 646.517,812.448 646.351,813.448 646.5,814.5C 641.588,815.026 636.922,814.359 632.5,812.5C 630.068,814.414 627.402,815.748 624.5,816.5C 624.704,814.315 625.37,812.315 626.5,810.5C 627.376,810.631 628.043,810.298 628.5,809.5C 629.32,807.026 630.32,804.693 631.5,802.5C 633.408,801.514 634.408,799.848 634.5,797.5C 635.906,797.027 636.573,796.027 636.5,794.5C 638.033,790.296 640.7,786.963 644.5,784.5 Z"/></g>
<g><path style="opacity:0.867" fill="#fe7907" d="M 972.5,798.5 C 977.833,798.5 983.167,798.5 988.5,798.5C 989.739,807.165 994.072,813.665 1001.5,818C 988.524,816.506 978.857,810.006 972.5,798.5 Z"/></g>
<g><path style="opacity:0.02" fill="#d8d8d9" d="M 955.5,804.5 C 957.176,805.183 957.843,806.517 957.5,808.5C 956.655,807.329 955.989,805.995 955.5,804.5 Z"/></g>
<g><path style="opacity:0.247" fill="#feddbb" d="M 563.5,796.5 C 566.326,799.484 568.659,802.817 570.5,806.5C 571.248,808.332 572.248,809.999 573.5,811.5C 573.737,812.791 573.404,813.791 572.5,814.5C 569.494,808.489 566.494,802.489 563.5,796.5 Z"/></g>
<g><path style="opacity:1" fill="#293349" d="M 631.5,784.5 C 635.833,783.167 640.167,783.167 644.5,784.5C 640.7,786.963 638.033,790.296 636.5,794.5C 635.094,794.973 634.427,795.973 634.5,797.5C 632.75,798.659 631.75,800.326 631.5,802.5C 628.836,804.484 627.169,807.151 626.5,810.5C 624.103,812.662 622.436,815.329 621.5,818.5C 620.167,828.167 620.167,837.833 621.5,847.5C 621.973,848.906 622.973,849.573 624.5,849.5C 621.062,850.823 617.229,851.49 613,851.5C 609.167,851.333 605.333,851.167 601.5,851C 602.056,850.617 602.389,850.117 602.5,849.5C 603.492,849.672 604.158,849.338 604.5,848.5C 605.401,847.71 606.068,846.71 606.5,845.5C 607.167,837.324 607.833,828.99 608.5,820.5C 609.177,829.878 609.51,839.211 609.5,848.5C 611.833,848.5 614.167,848.5 616.5,848.5C 616.25,837.086 616.916,825.753 618.5,814.5C 620.408,813.514 621.408,811.848 621.5,809.5C 622.906,809.027 623.573,808.027 623.5,806.5C 625.583,802 627.916,797.666 630.5,793.5C 631.906,793.027 632.573,792.027 632.5,790.5C 633.139,789.903 633.472,789.07 633.5,788C 633.613,786.301 632.947,785.134 631.5,784.5 Z"/></g>
<g><path style="opacity:0.922" fill="#ad7a3a" d="M 631.5,802.5 C 630.32,804.693 629.32,807.026 628.5,809.5C 628.043,810.298 627.376,810.631 626.5,810.5C 627.169,807.151 628.836,804.484 631.5,802.5 Z"/></g>
<g><path style="opacity:0.941" fill="#785c40" d="M 623.5,806.5 C 623.573,808.027 622.906,809.027 621.5,809.5C 621.427,807.973 622.094,806.973 623.5,806.5 Z"/></g>
<g><path style="opacity:0.969" fill="#84623f" d="M 621.5,809.5 C 621.408,811.848 620.408,813.514 618.5,814.5C 618.953,812.435 619.953,810.768 621.5,809.5 Z"/></g>
<g><path style="opacity:1" fill="#faa026" d="M 593.5,800.5 C 594.458,800.953 595.292,801.619 596,802.5C 598.271,807.38 600.771,812.046 603.5,816.5C 604.383,821.103 604.717,825.77 604.5,830.5C 603.778,830.918 603.278,831.584 603,832.5C 601.851,829.607 601.351,826.607 601.5,823.5C 593.804,823.831 586.138,823.497 578.5,822.5C 578.192,821.692 577.692,821.025 577,820.5C 576.79,822.058 576.29,823.391 575.5,824.5C 575.665,821.15 575.498,817.817 575,814.5C 574.768,813.263 574.268,812.263 573.5,811.5C 572.248,809.999 571.248,808.332 570.5,806.5C 570.5,805.5 570.5,804.5 570.5,803.5C 577.167,803.5 583.833,803.5 590.5,803.5C 590.351,802.448 590.517,801.448 591,800.5C 592.071,803.113 592.905,803.113 593.5,800.5 Z"/></g>
<g><path style="opacity:0.328" fill="#787d83" d="M 658.5,788.5 C 659.662,807.329 659.829,826.329 659,845.5C 658.292,846.381 657.458,847.047 656.5,847.5C 656.829,833.99 656.496,820.656 655.5,807.5C 656.968,806.221 657.635,804.554 657.5,802.5C 658.441,797.93 658.774,793.263 658.5,788.5 Z"/></g>
<g><path style="opacity:0.71" fill="#616874" d="M 722.5,788.5 C 723.663,809.996 723.829,831.663 723,853.5C 722.722,854.416 722.222,855.082 721.5,855.5C 722.468,833.2 722.802,810.866 722.5,788.5 Z"/></g>
<g><path style="opacity:0.439" fill="#868b91" d="M 860.5,786.5 C 861.117,786.611 861.617,786.944 862,787.5C 862.667,807.167 862.667,826.833 862,846.5C 861.617,847.056 861.117,847.389 860.5,847.5C 860.737,846.209 860.404,845.209 859.5,844.5C 859.5,826.167 859.5,807.833 859.5,789.5C 860.404,788.791 860.737,787.791 860.5,786.5 Z"/></g>
<g><path style="opacity:0.086" fill="#c8c9cc" d="M 692.5,786.5 C 693.5,787.167 694.5,787.833 695.5,788.5C 695.5,789.167 695.5,789.833 695.5,790.5C 688.808,787.85 681.808,786.85 674.5,787.5C 674.5,796.5 674.5,805.5 674.5,814.5C 680.004,814.932 685.337,814.265 690.5,812.5C 691.189,810.556 691.689,808.556 692,806.5C 693.356,805.62 694.856,805.286 696.5,805.5C 696.5,807.167 696.5,808.833 696.5,810.5C 695.448,810.351 694.448,810.517 693.5,811C 692.167,813 690.5,814.667 688.5,816C 683.177,816.499 677.844,816.666 672.5,816.5C 672.5,806.5 672.5,796.5 672.5,786.5C 679.167,786.5 685.833,786.5 692.5,786.5 Z"/></g>
<g><path style="opacity:0.135" fill="#fdf0df" d="M 657.5,802.5 C 657.635,804.554 656.968,806.221 655.5,807.5C 654.509,809.482 653.509,811.482 652.5,813.5C 651.501,825.482 651.168,837.482 651.5,849.5C 651.167,849.5 650.833,849.5 650.5,849.5C 650.333,836.829 650.5,824.162 651,811.5C 651.513,810.473 652.013,809.473 652.5,808.5C 654.169,806.408 655.836,804.408 657.5,802.5 Z"/></g>
<g><path style="opacity:1" fill="#b17937" d="M 626.5,810.5 C 625.37,812.315 624.704,814.315 624.5,816.5C 623.5,817.167 622.5,817.833 621.5,818.5C 622.436,815.329 624.103,812.662 626.5,810.5 Z"/></g>
<g><path style="opacity:0.2" fill="#dcddde" d="M 772.5,812.5 C 771.921,815.331 770.588,817.664 768.5,819.5C 768.998,816.674 770.331,814.34 772.5,812.5 Z"/></g>
<g><path style="opacity:0.906" fill="#5d646f" d="M 928.5,819.5 C 926.673,824.337 924.673,829.003 922.5,833.5C 923.152,828.197 925.152,823.53 928.5,819.5 Z"/></g>
<g><path style="opacity:0.137" fill="#aeb0b4" d="M 958.5,810.5 C 961.462,814.709 963.462,819.376 964.5,824.5C 961.449,820.386 959.449,815.72 958.5,810.5 Z"/></g>
<g><path style="opacity:0.129" fill="#c6c7ca" d="M 795.5,844.5 C 795.5,845.5 795.5,846.5 795.5,847.5C 787.5,847.5 779.5,847.5 771.5,847.5C 771.5,846.5 771.5,845.5 771.5,844.5C 782.86,823.774 794.194,803.107 805.5,782.5C 803.901,782.768 802.568,782.434 801.5,781.5C 803.703,779.196 806.037,779.03 808.5,781C 797.164,802.808 785.164,824.308 772.5,845.5C 779.476,846.664 786.476,846.831 793.5,846C 794.044,845.283 794.711,844.783 795.5,844.5 Z"/></g>
<g><path style="opacity:1" fill="#1b2638" d="M 936.5,810.5 C 934.533,814.759 932.867,819.092 931.5,823.5C 930.883,823.611 930.383,823.944 930,824.5C 929.71,826.92 929.21,829.254 928.5,831.5C 927.5,831.833 926.833,832.5 926.5,833.5C 925.596,834.209 925.263,835.209 925.5,836.5C 924.5,836.5 923.5,836.5 922.5,836.5C 922.719,837.675 922.386,838.675 921.5,839.5C 920.913,838.767 920.913,837.767 921.5,836.5C 921.263,835.209 921.596,834.209 922.5,833.5C 924.673,829.003 926.673,824.337 928.5,819.5C 929.506,816.79 930.506,814.124 931.5,811.5C 933.175,809.807 934.508,807.807 935.5,805.5C 936.452,807.045 936.785,808.712 936.5,810.5 Z"/></g>
<g><path style="opacity:1" fill="#fa9c2f" d="M 652.5,808.5 C 652.013,809.473 651.513,810.473 651,811.5C 650.5,824.162 650.333,836.829 650.5,849.5C 650.5,865.167 650.5,880.833 650.5,896.5C 650.167,896.5 649.833,896.5 649.5,896.5C 649.5,882.833 649.5,869.167 649.5,855.5C 649.5,849.5 649.5,843.5 649.5,837.5C 649.026,830.837 648.526,824.171 648,817.5C 647.389,822.496 646.889,827.496 646.5,832.5C 639.167,832.5 631.833,832.5 624.5,832.5C 624.477,834.927 623.977,837.26 623,839.5C 622.667,837.833 622.333,836.167 622,834.5C 621.501,838.821 621.334,843.154 621.5,847.5C 620.167,837.833 620.167,828.167 621.5,818.5C 622.5,817.833 623.5,817.167 624.5,816.5C 627.402,815.748 630.068,814.414 632.5,812.5C 636.922,814.359 641.588,815.026 646.5,814.5C 646.351,813.448 646.517,812.448 647,811.5C 649.085,809.918 650.585,807.918 651.5,805.5C 652.386,806.325 652.719,807.325 652.5,808.5 Z"/></g>
<g><path style="opacity:0.82" fill="#535c68" d="M 674.5,820.5 C 672.529,829.105 671.862,838.105 672.5,847.5C 671.506,838.348 671.173,829.015 671.5,819.5C 672.791,819.263 673.791,819.596 674.5,820.5 Z"/></g>
<g><path style="opacity:0.357" fill="#b8bbbf" d="M 674.5,820.5 C 674.167,821.167 673.833,821.833 673.5,822.5C 673.5,830.833 673.5,839.167 673.5,847.5C 673.167,847.5 672.833,847.5 672.5,847.5C 671.862,838.105 672.529,829.105 674.5,820.5 Z"/></g>
<g><path style="opacity:0.231" fill="#bcbec1" d="M 948.5,823.5 C 948.5,825.167 948.5,826.833 948.5,828.5C 942.5,828.5 936.5,828.5 930.5,828.5C 930.629,826.784 930.962,825.117 931.5,823.5C 932.867,819.092 934.533,814.759 936.5,810.5C 937.302,809.048 937.802,807.382 938,805.5C 939.011,804.663 940.178,804.33 941.5,804.5C 943.979,810.728 946.312,817.062 948.5,823.5 Z M 938.5,808.5 C 939.376,808.369 940.043,808.702 940.5,809.5C 942.99,815.462 945.157,821.462 947,827.5C 942.263,826.531 937.43,826.197 932.5,826.5C 935.002,820.666 937.002,814.666 938.5,808.5 Z"/></g>
<g><path style="opacity:0.09" fill="#c7c8cb" d="M 964.5,824.5 C 966.42,826.746 967.753,829.413 968.5,832.5C 966.229,830.388 964.896,827.721 964.5,824.5 Z"/></g>
<g><path style="opacity:0.146" fill="#acaeb3" d="M 686.5,820.5 C 687.601,819.402 688.934,819.235 690.5,820C 692.022,822.305 694.022,823.805 696.5,824.5C 696.5,826.5 696.5,828.5 696.5,830.5C 695.127,830.657 693.793,830.49 692.5,830C 692.671,825.363 690.671,822.196 686.5,820.5 Z"/></g>
<g><path style="opacity:0.62" fill="#838890" d="M 948.5,823.5 C 949.461,825.265 949.795,827.265 949.5,829.5C 942.978,829.823 936.645,829.49 930.5,828.5C 936.5,828.5 942.5,828.5 948.5,828.5C 948.5,826.833 948.5,825.167 948.5,823.5 Z"/></g>
<g><path style="opacity:1" fill="#fb941d" d="M 604.5,830.5 C 604.5,836.5 604.5,842.5 604.5,848.5C 603.127,848.657 601.793,848.49 600.5,848C 601.308,847.692 601.975,847.192 602.5,846.5C 601.691,844.929 601.357,843.262 601.5,841.5C 593.232,841.464 585.066,840.797 577,839.5C 576.768,840.737 576.268,841.737 575.5,842.5C 575.5,836.5 575.5,830.5 575.5,824.5C 576.29,823.391 576.79,822.058 577,820.5C 577.692,821.025 578.192,821.692 578.5,822.5C 586.138,823.497 593.804,823.831 601.5,823.5C 601.351,826.607 601.851,829.607 603,832.5C 603.278,831.584 603.778,830.918 604.5,830.5 Z"/></g>
<g><path style="opacity:0.007" fill="#e4e5e6" d="M 809.5,836.5 C 808.596,835.791 808.263,834.791 808.5,833.5C 807.5,833.5 806.5,833.5 805.5,833.5C 806.707,830.694 808.707,830.028 811.5,831.5C 810.05,832.85 809.383,834.516 809.5,836.5 Z"/></g>
<g><path style="opacity:1" fill="#fc911a" d="M 649.5,837.5 C 648.71,836.391 648.21,835.058 648,833.5C 647.536,834.094 647.369,834.761 647.5,835.5C 646.549,836.919 646.216,838.585 646.5,840.5C 639.173,840.944 631.84,841.277 624.5,841.5C 624.083,844.079 624.75,846.246 626.5,848C 624.803,848.384 623.137,848.218 621.5,847.5C 621.334,843.154 621.501,838.821 622,834.5C 622.333,836.167 622.667,837.833 623,839.5C 623.977,837.26 624.477,834.927 624.5,832.5C 631.833,832.5 639.167,832.5 646.5,832.5C 646.889,827.496 647.389,822.496 648,817.5C 648.526,824.171 649.026,830.837 649.5,837.5 Z"/></g>
<g><path style="opacity:0.125" fill="#7f838a" d="M 928.5,831.5 C 936.174,831.334 943.841,831.5 951.5,832C 952.056,832.383 952.389,832.883 952.5,833.5C 951.833,833.5 951.167,833.5 950.5,833.5C 943.043,834.444 935.709,834.777 928.5,834.5C 927.833,834.5 927.167,834.5 926.5,834.5C 926.5,834.167 926.5,833.833 926.5,833.5C 926.833,832.5 927.5,831.833 928.5,831.5 Z"/></g>
<g><path style="opacity:0.149" fill="#d8d8da" d="M 768.5,819.5 C 765.574,826.648 761.907,833.315 757.5,839.5C 760.055,832.117 763.722,825.45 768.5,819.5 Z"/></g>
<g><path style="opacity:0.995" fill="#bf7730" d="M 603.5,816.5 C 604.79,817.058 605.623,818.058 606,819.5C 606.5,828.16 606.666,836.827 606.5,845.5C 606.068,846.71 605.401,847.71 604.5,848.5C 604.5,842.5 604.5,836.5 604.5,830.5C 604.717,825.77 604.383,821.103 603.5,816.5 Z"/></g>
<g><path style="opacity:0.243" fill="#babcc0" d="M 909.5,848.5 C 909.5,849.833 909.5,851.167 909.5,852.5C 907.833,852.5 906.167,852.5 904.5,852.5C 904.765,847.613 905.765,842.946 907.5,838.5C 907.19,836.094 906.523,836.094 905.5,838.5C 904.609,839.11 903.609,839.443 902.5,839.5C 904.223,836.66 905.557,833.66 906.5,830.5C 907.833,830.5 909.167,830.5 910.5,830.5C 909.495,836.165 908.162,841.832 906.5,847.5C 906.667,848.167 906.833,848.833 907,849.5C 907.671,848.748 908.504,848.414 909.5,848.5 Z"/></g>
<g><path style="opacity:0.271" fill="#848890" d="M 805.5,833.5 C 806.5,833.5 807.5,833.5 808.5,833.5C 808.263,834.791 808.596,835.791 809.5,836.5C 809.5,837.5 809.5,838.5 809.5,839.5C 807.692,840.918 807.025,842.918 807.5,845.5C 807.5,847.833 807.5,850.167 807.5,852.5C 806.5,852.5 805.5,852.5 804.5,852.5C 804.315,848.934 804.981,845.601 806.5,842.5C 806.48,841.274 806.147,840.274 805.5,839.5C 805.5,838.5 805.5,837.5 805.5,836.5C 805.5,835.5 805.5,834.5 805.5,833.5 Z"/></g>
<g><path style="opacity:0.555" fill="#a8abb0" d="M 700.5,852.5 C 701.757,848.261 702.757,843.928 703.5,839.5C 703.253,838.287 702.586,837.62 701.5,837.5C 702.167,835.167 702.833,832.833 703.5,830.5C 704.833,830.5 706.167,830.5 707.5,830.5C 705.886,837.8 704.553,845.133 703.5,852.5C 702.5,852.5 701.5,852.5 700.5,852.5 Z"/></g>
<g><path style="opacity:0.031" fill="#b9bbbf" d="M 968.5,832.5 C 970.934,835.709 972.601,839.376 973.5,843.5C 970.575,840.525 968.908,836.858 968.5,832.5 Z"/></g>
<g><path style="opacity:0.173" fill="#c0c2c5" d="M 950.5,833.5 C 951.167,833.5 951.833,833.5 952.5,833.5C 954.006,837.822 955.672,842.155 957.5,846.5C 956.481,848.511 955.481,850.511 954.5,852.5C 953.167,852.5 951.833,852.5 950.5,852.5C 950.5,851.167 950.5,849.833 950.5,848.5C 951.833,848.5 953.167,848.5 954.5,848.5C 953.577,843.397 952.244,838.397 950.5,833.5 Z"/></g>
<g><path style="opacity:0.318" fill="#cfd0d3" d="M 805.5,836.5 C 805.5,837.5 805.5,838.5 805.5,839.5C 803.765,841.771 801.765,843.771 799.5,845.5C 798.508,845.672 797.842,845.338 797.5,844.5C 800.5,842.167 803.167,839.5 805.5,836.5 Z"/></g>
<g><path style="opacity:0.169" fill="#c9cacd" d="M 757.5,839.5 C 755.009,843.488 753.342,847.822 752.5,852.5C 751.5,852.5 750.5,852.5 749.5,852.5C 749.351,851.448 749.517,850.448 750,849.5C 752.301,845.841 754.801,842.508 757.5,839.5 Z"/></g>
<g><path style="opacity:0.004" fill="#d1d2d4" d="M 809.5,839.5 C 809.125,841.698 808.458,843.698 807.5,845.5C 807.025,842.918 807.692,840.918 809.5,839.5 Z"/></g>
<g><path style="opacity:1" fill="#2b3545" d="M 926.5,833.5 C 926.5,833.833 926.5,834.167 926.5,834.5C 925.069,838.293 923.736,842.126 922.5,846C 922.482,848.442 923.149,850.608 924.5,852.5C 919.5,852.5 914.5,852.5 909.5,852.5C 909.5,851.167 909.5,849.833 909.5,848.5C 910.167,848.5 910.833,848.5 911.5,848.5C 912.793,849.645 913.959,849.311 915,847.5C 916.711,843.49 918.878,839.824 921.5,836.5C 920.913,837.767 920.913,838.767 921.5,839.5C 922.386,838.675 922.719,837.675 922.5,836.5C 923.5,836.5 924.5,836.5 925.5,836.5C 925.263,835.209 925.596,834.209 926.5,833.5 Z"/></g>
<g><path style="opacity:0.212" fill="#a8abb0" d="M 926.5,834.5 C 927.167,834.5 927.833,834.5 928.5,834.5C 927.118,838.406 925.452,842.239 923.5,846C 924.385,848.157 926.052,848.99 928.5,848.5C 928.5,849.833 928.5,851.167 928.5,852.5C 927.167,852.5 925.833,852.5 924.5,852.5C 923.149,850.608 922.482,848.442 922.5,846C 923.736,842.126 925.069,838.293 926.5,834.5 Z"/></g>
<g><path style="opacity:0.165" fill="#d3d4d6" d="M 973.5,843.5 C 974.939,845.36 976.605,847.027 978.5,848.5C 978.158,849.338 977.492,849.672 976.5,849.5C 974.615,847.947 973.615,845.947 973.5,843.5 Z"/></g>
<g><path style="opacity:0.375" fill="#fca34e" d="M 573.5,811.5 C 574.268,812.263 574.768,813.263 575,814.5C 575.498,817.817 575.665,821.15 575.5,824.5C 575.5,830.5 575.5,836.5 575.5,842.5C 575.721,845.279 575.388,847.946 574.5,850.5C 573.833,850.5 573.167,850.5 572.5,850.5C 572.5,838.5 572.5,826.5 572.5,814.5C 573.404,813.791 573.737,812.791 573.5,811.5 Z"/></g>
<g><path style="opacity:0.175" fill="#e2e1e2" d="M 673.5,822.5 C 674.492,830.316 674.826,838.316 674.5,846.5C 679.895,846.733 685.228,846.4 690.5,845.5C 685.265,847.45 679.598,848.117 673.5,847.5C 673.5,839.167 673.5,830.833 673.5,822.5 Z"/></g>
<g><path style="opacity:0.627" fill="#8b9097" d="M 701.5,837.5 C 700.054,842.78 696.721,846.28 691.5,848C 684.986,848.82 678.653,848.653 672.5,847.5C 672.833,847.5 673.167,847.5 673.5,847.5C 679.598,848.117 685.265,847.45 690.5,845.5C 694.681,843.668 698.348,841.002 701.5,837.5 Z"/></g>
<g><path style="opacity:0.627" fill="#737983" d="M 771.5,844.5 C 771.5,845.5 771.5,846.5 771.5,847.5C 779.5,847.5 787.5,847.5 795.5,847.5C 795.5,846.5 795.5,845.5 795.5,844.5C 796.167,844.5 796.833,844.5 797.5,844.5C 797.842,845.338 798.508,845.672 799.5,845.5C 799.047,846.458 798.381,847.292 797.5,848C 788.173,848.5 778.839,848.666 769.5,848.5C 769.229,846.62 769.896,845.287 771.5,844.5 Z"/></g>
<g><path style="opacity:0.627" fill="#848991" d="M 905.5,838.5 C 904.118,841.394 902.118,843.894 899.5,846C 891.927,848.687 884.261,849.187 876.5,847.5C 882.5,847.5 888.5,847.5 894.5,847.5C 894.5,846.5 894.5,845.5 894.5,844.5C 897.676,843.66 900.342,841.993 902.5,839.5C 903.609,839.443 904.609,839.11 905.5,838.5 Z"/></g>
<g><path style="opacity:0.011" fill="#e7e7e7" d="M 845.5,848.5 C 846.586,848.62 847.253,849.287 847.5,850.5C 847.253,851.713 846.586,852.38 845.5,852.5C 845.5,851.167 845.5,849.833 845.5,848.5 Z"/></g>
<g><path style="opacity:0.277" fill="#bec0c3" d="M 859.5,844.5 C 860.404,845.209 860.737,846.209 860.5,847.5C 859.075,848.922 858.075,850.589 857.5,852.5C 855.833,852.5 854.167,852.5 852.5,852.5C 852.5,851.167 852.5,849.833 852.5,848.5C 854.591,848.682 856.591,848.348 858.5,847.5C 859.386,846.675 859.719,845.675 859.5,844.5 Z"/></g>
<g><path style="opacity:1" fill="#fc8815" d="M 647.5,835.5 C 647.582,842.858 647.248,850.191 646.5,857.5C 625.669,856.201 604.836,856.201 584,857.5C 581.621,857.346 579.454,856.68 577.5,855.5C 575.958,860.377 575.291,865.377 575.5,870.5C 575.5,874.167 575.5,877.833 575.5,881.5C 575.5,886.5 575.5,891.5 575.5,896.5C 575.167,896.5 574.833,896.5 574.5,896.5C 574.5,881.167 574.5,865.833 574.5,850.5C 575.388,847.946 575.721,845.279 575.5,842.5C 576.268,841.737 576.768,840.737 577,839.5C 585.066,840.797 593.232,841.464 601.5,841.5C 601.357,843.262 601.691,844.929 602.5,846.5C 601.975,847.192 601.308,847.692 600.5,848C 601.793,848.49 603.127,848.657 604.5,848.5C 604.158,849.338 603.492,849.672 602.5,849.5C 600.897,849.312 599.563,849.812 598.5,851C 599.167,851.333 599.833,851.667 600.5,852C 609.5,852.667 618.5,852.667 627.5,852C 627.957,851.586 628.291,851.086 628.5,850.5C 627.311,849.571 625.978,849.238 624.5,849.5C 622.973,849.573 621.973,848.906 621.5,847.5C 623.137,848.218 624.803,848.384 626.5,848C 624.75,846.246 624.083,844.079 624.5,841.5C 631.84,841.277 639.173,840.944 646.5,840.5C 646.216,838.585 646.549,836.919 647.5,835.5 Z"/></g>
<g><path style="opacity:0.298" fill="#cfcccd" d="M 656.5,847.5 C 655.759,849.354 654.759,851.021 653.5,852.5C 651.839,866.972 650.839,881.638 650.5,896.5C 650.5,880.833 650.5,865.167 650.5,849.5C 650.833,849.5 651.167,849.5 651.5,849.5C 653.05,848.559 654.716,847.893 656.5,847.5 Z"/></g>
<g><path style="opacity:0.529" fill="#8c9097" d="M 842.5,848.5 C 843.5,848.5 844.5,848.5 845.5,848.5C 845.5,849.833 845.5,851.167 845.5,852.5C 844.5,852.5 843.5,852.5 842.5,852.5C 842.218,851.222 841.551,850.222 840.5,849.5C 841.492,849.672 842.158,849.338 842.5,848.5 Z"/></g>
<g><path style="opacity:0.401" fill="#83878e" d="M 978.5,848.5 C 979.5,848.5 980.5,848.5 981.5,848.5C 981.5,849.833 981.5,851.167 981.5,852.5C 980.833,852.5 980.167,852.5 979.5,852.5C 978.9,851.1 977.9,850.1 976.5,849.5C 977.492,849.672 978.158,849.338 978.5,848.5 Z"/></g>
<g><path style="opacity:0.017" fill="#dbdcde" d="M 981.5,848.5 C 982.586,848.62 983.253,849.287 983.5,850.5C 983.253,851.713 982.586,852.38 981.5,852.5C 981.5,851.167 981.5,849.833 981.5,848.5 Z"/></g>
<g><path style="opacity:0.045" fill="#babcbf" d="M 822.5,847.5 C 821.833,849.167 821.167,850.833 820.5,852.5C 818.833,852.5 817.167,852.5 815.5,852.5C 815.5,851.167 815.5,849.833 815.5,848.5C 817.903,848.552 820.236,848.219 822.5,847.5 Z"/></g>
<g><path style="opacity:1" fill="#c47025" d="M 602.5,849.5 C 602.389,850.117 602.056,850.617 601.5,851C 605.333,851.167 609.167,851.333 613,851.5C 617.229,851.49 621.062,850.823 624.5,849.5C 625.978,849.238 627.311,849.571 628.5,850.5C 628.291,851.086 627.957,851.586 627.5,852C 618.5,852.667 609.5,852.667 600.5,852C 599.833,851.667 599.167,851.333 598.5,851C 599.563,849.812 600.897,849.312 602.5,849.5 Z"/></g>
<g><path style="opacity:1" fill="#fd800e" d="M 649.5,837.5 C 649.5,843.5 649.5,849.5 649.5,855.5C 648.732,854.737 648.232,853.737 648,852.5C 647.502,855.482 647.335,858.482 647.5,861.5C 646.539,863.265 646.205,865.265 646.5,867.5C 623.831,867.667 601.164,867.5 578.5,867C 577.874,866.25 577.374,865.416 577,864.5C 576.809,866.708 576.309,868.708 575.5,870.5C 575.291,865.377 575.958,860.377 577.5,855.5C 579.454,856.68 581.621,857.346 584,857.5C 604.836,856.201 625.669,856.201 646.5,857.5C 647.248,850.191 647.582,842.858 647.5,835.5C 647.369,834.761 647.536,834.094 648,833.5C 648.21,835.058 648.71,836.391 649.5,837.5 Z"/></g>
<g><path style="opacity:1" fill="#fe790a" d="M 647.5,861.5 C 647.313,866.845 646.98,872.178 646.5,877.5C 623.824,877.833 601.157,877.5 578.5,876.5C 577.902,875.205 577.402,873.872 577,872.5C 576.819,875.695 576.319,878.695 575.5,881.5C 575.5,877.833 575.5,874.167 575.5,870.5C 576.309,868.708 576.809,866.708 577,864.5C 577.374,865.416 577.874,866.25 578.5,867C 601.164,867.5 623.831,867.667 646.5,867.5C 646.205,865.265 646.539,863.265 647.5,861.5 Z"/></g>
<g><path style="opacity:1" fill="#fe7104" d="M 649.5,855.5 C 649.5,869.167 649.5,882.833 649.5,896.5C 624.833,896.5 600.167,896.5 575.5,896.5C 575.5,891.5 575.5,886.5 575.5,881.5C 576.319,878.695 576.819,875.695 577,872.5C 577.402,873.872 577.902,875.205 578.5,876.5C 601.157,877.5 623.824,877.833 646.5,877.5C 646.98,872.178 647.313,866.845 647.5,861.5C 647.335,858.482 647.502,855.482 648,852.5C 648.232,853.737 648.732,854.737 649.5,855.5 Z"/></g>
<g><path style="opacity:0.296" fill="#b7b9bd" d="M 765.5,870.5 C 767.847,871.607 768.18,873.274 766.5,875.5C 765.549,874.081 765.216,872.415 765.5,870.5 Z"/></g>
<g><path style="opacity:0.024" fill="#a4a8ae" d="M 1028.5,891.5 C 1028.5,890.5 1028.5,889.5 1028.5,888.5C 1028.83,884.116 1028.49,879.783 1027.5,875.5C 1026.89,875.624 1026.56,875.957 1026.5,876.5C 1025.47,877.374 1024.81,878.541 1024.5,880C 1025.55,881.578 1025.55,883.078 1024.5,884.5C 1022.81,883.143 1021.15,881.81 1019.5,880.5C 1015.51,876.31 1013.84,877.476 1014.5,884C 1014.53,886.61 1015.2,888.777 1016.5,890.5C 1017.17,889.5 1017.83,888.5 1018.5,887.5C 1018.54,888.583 1018.87,889.583 1019.5,890.5C 1017.6,891.466 1015.6,891.799 1013.5,891.5C 1013.5,886.5 1013.5,881.5 1013.5,876.5C 1014.5,876.5 1015.5,876.5 1016.5,876.5C 1018.88,877.786 1021.04,879.452 1023,881.5C 1023.5,878.469 1023.33,875.469 1022.5,872.5C 1025.5,872.5 1028.5,872.5 1031.5,872.5C 1030.62,875.752 1029.96,879.085 1029.5,882.5C 1029.32,885.58 1029.99,888.413 1031.5,891C 1030.55,891.483 1029.55,891.649 1028.5,891.5 Z"/></g>
<g><path style="opacity:0.216" fill="#a9acb1" d="M 843.5,872.5 C 845.5,872.5 847.5,872.5 849.5,872.5C 849.08,874.674 849.08,876.674 849.5,878.5C 850.5,877.5 851.5,876.5 852.5,875.5C 851.359,874.575 851.359,873.741 852.5,873C 857.155,872.501 861.821,872.334 866.5,872.5C 865.628,878.789 865.295,885.122 865.5,891.5C 862.5,891.5 859.5,891.5 856.5,891.5C 855.21,888.524 853.877,885.524 852.5,882.5C 850.402,881.086 849.402,881.752 849.5,884.5C 848.833,884.5 848.167,884.5 847.5,884.5C 847.5,881.5 847.5,878.5 847.5,875.5C 846.209,875.263 845.209,875.596 844.5,876.5C 844.5,881.167 844.5,885.833 844.5,890.5C 843.51,884.69 843.177,878.69 843.5,872.5 Z M 859.5,877.5 C 859.5,880.5 859.5,883.5 859.5,886.5C 859.649,887.552 859.483,888.552 859,889.5C 857.265,886.638 855.098,884.304 852.5,882.5C 853.927,880.228 855.594,878.061 857.5,876C 858.816,875.472 859.483,875.972 859.5,877.5 Z"/></g>
<g><path style="opacity:0.176" fill="#bcbec2" d="M 884.5,891.5 C 885.4,886.228 885.733,880.895 885.5,875.5C 884.209,875.263 883.209,875.596 882.5,876.5C 881.833,876.833 881.167,877.167 880.5,877.5C 879.058,876.18 878.392,874.514 878.5,872.5C 881.518,872.335 884.518,872.502 887.5,873C 888.784,874.297 888.617,875.464 887,876.5C 886.223,881.222 886.39,885.889 887.5,890.5C 886.675,891.386 885.675,891.719 884.5,891.5 Z"/></g>
<g><path style="opacity:0.29" fill="#babcc0" d="M 904.5,876.5 C 902.402,875.086 901.402,875.752 901.5,878.5C 902.791,878.737 903.791,878.404 904.5,877.5C 905.774,878.189 905.774,879.023 904.5,880C 903.207,880.49 901.873,880.657 900.5,880.5C 899.869,876.067 897.869,875.4 894.5,878.5C 894.473,876.801 893.806,875.467 892.5,874.5C 892.611,873.883 892.944,873.383 893.5,873C 896.5,872.333 899.5,872.333 902.5,873C 903.823,873.816 904.489,874.983 904.5,876.5 Z"/></g>
<g><path style="opacity:0.38" fill="#babcc0" d="M 829.5,872.5 C 829.473,874.199 828.806,875.533 827.5,876.5C 823.904,880.117 823.57,884.117 826.5,888.5C 826.5,888.833 826.5,889.167 826.5,889.5C 825.141,888.993 824.141,887.993 823.5,886.5C 822.712,887.77 821.712,888.77 820.5,889.5C 820.5,888.833 820.5,888.167 820.5,887.5C 822.522,882.94 821.522,879.273 817.5,876.5C 816.438,877.425 816.438,878.425 817.5,879.5C 817.167,879.5 816.833,879.5 816.5,879.5C 815.185,878.524 813.852,877.524 812.5,876.5C 811.735,877.612 810.735,878.279 809.5,878.5C 809.53,877.503 809.03,876.836 808,876.5C 806.269,877.741 804.436,878.741 802.5,879.5C 806.939,871.884 812.939,870.551 820.5,875.5C 822.242,880.72 823.742,880.72 825,875.5C 826.751,874.778 828.251,873.778 829.5,872.5 Z"/></g>
<g><path style="opacity:0.255" fill="#a8aaaf" d="M 920.5,870.5 C 927.3,870.281 929.966,873.281 928.5,879.5C 928.5,877.833 928.5,876.167 928.5,874.5C 927.167,874.5 925.833,874.5 924.5,874.5C 924.425,877.206 924.092,879.873 923.5,882.5C 922.508,882.328 921.842,882.662 921.5,883.5C 920.515,879.366 920.182,875.032 920.5,870.5 Z M 921.5,875.5 C 923.465,875.948 923.798,876.948 922.5,878.5C 921.614,877.675 921.281,876.675 921.5,875.5 Z"/></g>
<g><path style="opacity:0.416" fill="#b1b4b8" d="M 945.5,882.5 C 945.978,879.722 944.978,877.722 942.5,876.5C 941.674,878.959 941.007,881.459 940.5,884C 941.222,886.677 942.222,889.177 943.5,891.5C 941.567,890.358 940.067,888.692 939,886.5C 938.405,887.899 938.572,889.232 939.5,890.5C 936.914,891.48 934.247,891.813 931.5,891.5C 933.153,885.353 932.82,879.353 930.5,873.5C 937.031,871.241 942.531,872.574 947,877.5C 947.599,879.535 947.099,881.201 945.5,882.5 Z M 938.5,877.5 C 940.914,878.777 941.081,880.443 939,882.5C 938.506,880.866 938.34,879.199 938.5,877.5 Z"/></g>
<g><path style="opacity:0.412" fill="#b7babe" d="M 1062.5,891.5 C 1062.91,889.027 1061.91,887.694 1059.5,887.5C 1058.61,885.265 1057.61,884.765 1056.5,886C 1056.84,887.03 1057.5,887.53 1058.5,887.5C 1058.73,889.062 1059.4,890.395 1060.5,891.5C 1058.83,891.5 1057.17,891.5 1055.5,891.5C 1055.5,891.167 1055.5,890.833 1055.5,890.5C 1055.5,885.5 1055.5,880.5 1055.5,875.5C 1054.21,875.263 1053.21,875.596 1052.5,876.5C 1051.83,876.833 1051.17,877.167 1050.5,877.5C 1050.22,876.711 1049.72,876.044 1049,875.5C 1048.51,877.134 1048.34,878.801 1048.5,880.5C 1045.49,880.148 1042.99,878.815 1041,876.5C 1039.99,877.056 1039.16,877.722 1038.5,878.5C 1038.47,876.801 1037.81,875.467 1036.5,874.5C 1036.61,873.883 1036.94,873.383 1037.5,873C 1041.1,872.043 1044.43,872.543 1047.5,874.5C 1051.93,872.475 1056.6,871.975 1061.5,873C 1062.89,873.956 1063.56,875.289 1063.5,877C 1061.74,879.736 1061.41,882.569 1062.5,885.5C 1063.68,884.145 1064.68,884.312 1065.5,886C 1064.13,887.719 1063.13,889.552 1062.5,891.5 Z M 1056.5,878.5 C 1059.8,878.329 1060.13,878.995 1057.5,880.5C 1056.7,880.043 1056.37,879.376 1056.5,878.5 Z M 1059.5,887.5 C 1059.17,887.5 1058.83,887.5 1058.5,887.5C 1057.5,887.53 1056.84,887.03 1056.5,886C 1057.61,884.765 1058.61,885.265 1059.5,887.5 Z"/></g>
<g><path style="opacity:0.418" fill="#fe904c" d="M 572.5,850.5 C 573.167,850.5 573.833,850.5 574.5,850.5C 574.5,865.833 574.5,881.167 574.5,896.5C 572.516,881.536 571.849,866.203 572.5,850.5 Z"/></g>
<g><path style="opacity:0.107" fill="#dcdcdd" d="M 753.5,870.5 C 754.695,870.866 755.361,871.699 755.5,873C 753.963,878.093 754.296,882.926 756.5,887.5C 755.652,888.625 754.652,888.625 753.5,887.5C 753.5,887.167 753.5,886.833 753.5,886.5C 753.5,881.167 753.5,875.833 753.5,870.5 Z"/></g>
<g><path style="opacity:0.502" fill="#4f5460" d="M 904.5,876.5 C 904.5,876.833 904.5,877.167 904.5,877.5C 903.791,878.404 902.791,878.737 901.5,878.5C 901.402,875.752 902.402,875.086 904.5,876.5 Z"/></g>
<g><path style="opacity:0.663" fill="#3c4351" d="M 1035.5,874.5 C 1035.83,874.5 1036.17,874.5 1036.5,874.5C 1037.81,875.467 1038.47,876.801 1038.5,878.5C 1036.63,880.635 1035.96,883.302 1036.5,886.5C 1036.29,888.549 1035.46,888.883 1034,887.5C 1033.83,886 1033.67,884.5 1033.5,883C 1033.48,879.927 1034.15,877.093 1035.5,874.5 Z"/></g>
<g><path style="opacity:0.533" fill="#464e5c" d="M 1055.5,890.5 C 1054.5,890.5 1053.5,890.5 1052.5,890.5C 1052.5,885.833 1052.5,881.167 1052.5,876.5C 1053.21,875.596 1054.21,875.263 1055.5,875.5C 1055.5,880.5 1055.5,885.5 1055.5,890.5 Z"/></g>
<g><path style="opacity:0.004" fill="#cecfd1" d="M 763.5,870.5 C 763.5,872.167 763.5,873.833 763.5,875.5C 764.08,879.649 763.414,883.316 761.5,886.5C 761.433,883.051 761.766,879.551 762.5,876C 759.518,873.323 759.851,871.49 763.5,870.5 Z"/></g>
<g><path style="opacity:0.798" fill="#636972" d="M 763.5,870.5 C 764.167,870.5 764.833,870.5 765.5,870.5C 765.216,872.415 765.549,874.081 766.5,875.5C 766.5,879.167 766.5,882.833 766.5,886.5C 764.875,883.109 763.875,879.442 763.5,875.5C 763.5,873.833 763.5,872.167 763.5,870.5 Z"/></g>
<g><path style="opacity:0.941" fill="#37414e" d="M 827.5,876.5 C 828.376,876.369 829.043,876.702 829.5,877.5C 827.296,880.603 826.963,883.937 828.5,887.5C 828.043,888.298 827.376,888.631 826.5,888.5C 823.57,884.117 823.904,880.117 827.5,876.5 Z"/></g>
<g><path style="opacity:0.208" fill="#c2c4c8" d="M 1005.5,879.5 C 1004.6,878.791 1004.26,877.791 1004.5,876.5C 1002.82,876.285 1001.82,876.952 1001.5,878.5C 999.901,879.799 999.401,881.465 1000,883.5C 1002.08,880.716 1002.75,881.049 1002,884.5C 1000.29,885.138 998.46,885.138 996.5,884.5C 996.643,886.262 996.309,887.929 995.5,889.5C 996.808,890.626 998.142,890.626 999.5,889.5C 992.576,891.463 985.243,892.13 977.5,891.5C 977.5,891.167 977.5,890.833 977.5,890.5C 979.924,890.808 982.257,890.474 984.5,889.5C 983.757,888.818 983.091,888.151 982.5,887.5C 983.425,883.555 984.591,883.555 986,887.5C 986.904,882.269 986.404,877.269 984.5,872.5C 987.833,872.5 991.167,872.5 994.5,872.5C 993.066,875.594 992.399,878.927 992.5,882.5C 992.833,884.5 993.167,886.5 993.5,888.5C 995.019,885.508 996.686,882.508 998.5,879.5C 999.452,877.955 999.785,876.288 999.5,874.5C 1001.5,874.5 1003.5,874.5 1005.5,874.5C 1005.5,876.167 1005.5,877.833 1005.5,879.5 Z"/></g>
<g><path style="opacity:0.466" fill="#b9bbbe" d="M 796.5,887.5 C 796.44,888.043 796.107,888.376 795.5,888.5C 794.833,884.353 794.166,880.353 793.5,876.5C 793.44,875.957 793.107,875.624 792.5,875.5C 792.167,878 791.833,880.5 791.5,883C 791.525,885.929 792.191,888.429 793.5,890.5C 796.247,890.813 798.914,890.48 801.5,889.5C 800.757,888.818 800.091,888.151 799.5,887.5C 801.104,886.713 801.771,885.38 801.5,883.5C 804.449,885.373 806.449,888.039 807.5,891.5C 806.244,891.096 805.077,890.429 804,889.5C 799.028,891.329 793.861,891.995 788.5,891.5C 789.779,885.174 789.779,878.841 788.5,872.5C 791.167,872.5 793.833,872.5 796.5,872.5C 796.5,877.5 796.5,882.5 796.5,887.5 Z"/></g>
<g><path style="opacity:0.944" fill="#3b4554" d="M 793.5,876.5 C 793.5,881.167 793.5,885.833 793.5,890.5C 792.191,888.429 791.525,885.929 791.5,883C 791.833,880.5 792.167,878 792.5,875.5C 793.107,875.624 793.44,875.957 793.5,876.5 Z"/></g>
<g><path style="opacity:0.973" fill="#2b3342" d="M 820.5,887.5 C 819.883,887.611 819.383,887.944 819,888.5C 818.819,885.305 818.319,882.305 817.5,879.5C 816.438,878.425 816.438,877.425 817.5,876.5C 821.522,879.273 822.522,882.94 820.5,887.5 Z"/></g>
<g><path style="opacity:1" fill="#2f3949" d="M 864.5,876.5 C 865.103,881.619 864.436,886.285 862.5,890.5C 861.897,885.381 862.564,880.715 864.5,876.5 Z"/></g>
<g><path style="opacity:0.577" fill="#3e4655" d="M 884.5,891.5 C 883.167,891.5 882.5,890.833 882.5,889.5C 882.5,888.833 882.5,888.167 882.5,887.5C 882.5,883.833 882.5,880.167 882.5,876.5C 883.209,875.596 884.209,875.263 885.5,875.5C 885.733,880.895 885.4,886.228 884.5,891.5 Z"/></g>
<g><path style="opacity:1" fill="#121723" d="M 934.5,876.5 C 936.436,880.715 937.103,885.381 936.5,890.5C 934.564,886.285 933.897,881.619 934.5,876.5 Z"/></g>
<g><path style="opacity:1" fill="#202b3c" d="M 1019.5,880.5 C 1018.79,881.404 1017.79,881.737 1016.5,881.5C 1016.5,884.5 1016.5,887.5 1016.5,890.5C 1015.2,888.777 1014.53,886.61 1014.5,884C 1013.84,877.476 1015.51,876.31 1019.5,880.5 Z"/></g>
<g><path style="opacity:1" fill="#242f3e" d="M 844.5,876.5 C 846.436,880.715 847.103,885.381 846.5,890.5C 845.833,890.5 845.167,890.5 844.5,890.5C 844.5,885.833 844.5,881.167 844.5,876.5 Z"/></g>
<g><path style="opacity:0.945" fill="#666b74" d="M 864.5,876.5 C 862.564,880.715 861.897,885.381 862.5,890.5C 861.978,888.781 860.978,887.448 859.5,886.5C 859.5,883.5 859.5,880.5 859.5,877.5C 860.756,877.096 861.923,876.429 863,875.5C 863.765,875.57 864.265,875.903 864.5,876.5 Z"/></g>
<g><path style="opacity:0.638" fill="#7b7f87" d="M 1052.5,876.5 C 1052.5,881.167 1052.5,885.833 1052.5,890.5C 1053.5,890.5 1054.5,890.5 1055.5,890.5C 1055.5,890.833 1055.5,891.167 1055.5,891.5C 1054.17,891.5 1052.83,891.5 1051.5,891.5C 1051.84,889.517 1051.18,888.183 1049.5,887.5C 1049.5,887.167 1049.5,886.833 1049.5,886.5C 1049.5,886.167 1049.5,885.833 1049.5,885.5C 1049.28,882.721 1049.61,880.054 1050.5,877.5C 1051.17,877.167 1051.83,876.833 1052.5,876.5 Z"/></g>
<g><path style="opacity:0.969" fill="#434b58" d="M 809.5,878.5 C 807.974,879.492 807.307,880.992 807.5,883C 807.815,886.441 808.815,889.608 810.5,892.5C 809.609,891.89 808.609,891.557 807.5,891.5C 806.449,888.039 804.449,885.373 801.5,883.5C 801.433,882.041 801.766,880.708 802.5,879.5C 804.436,878.741 806.269,877.741 808,876.5C 809.03,876.836 809.53,877.503 809.5,878.5 Z"/></g>
<g><path style="opacity:0.867" fill="#5e636d" d="M 844.5,876.5 C 845.209,875.596 846.209,875.263 847.5,875.5C 847.5,878.5 847.5,881.5 847.5,884.5C 847.795,886.735 847.461,888.735 846.5,890.5C 847.103,885.381 846.436,880.715 844.5,876.5 Z"/></g>
<g><path style="opacity:1" fill="#38404d" d="M 928.5,879.5 C 927.624,879.369 926.957,879.702 926.5,880.5C 929.44,882.645 930.107,885.311 928.5,888.5C 927.508,888.672 926.842,888.338 926.5,887.5C 927.084,884.715 926.084,883.048 923.5,882.5C 924.092,879.873 924.425,877.206 924.5,874.5C 925.833,874.5 927.167,874.5 928.5,874.5C 928.5,876.167 928.5,877.833 928.5,879.5 Z"/></g>
<g><path style="opacity:1" fill="#3d4553" d="M 945.5,882.5 C 942.864,884.921 943.531,886.588 947.5,887.5C 947.5,887.833 947.5,888.167 947.5,888.5C 947.443,889.609 947.11,890.609 946.5,891.5C 945.5,891.5 944.5,891.5 943.5,891.5C 942.222,889.177 941.222,886.677 940.5,884C 941.007,881.459 941.674,878.959 942.5,876.5C 944.978,877.722 945.978,879.722 945.5,882.5 Z"/></g>
<g><path style="opacity:0.573" fill="#acaeb3" d="M 982.5,887.5 C 983.091,888.151 983.757,888.818 984.5,889.5C 982.257,890.474 979.924,890.808 977.5,890.5C 977.5,890.833 977.5,891.167 977.5,891.5C 971.833,891.5 966.167,891.5 960.5,891.5C 960.5,891.167 960.5,890.833 960.5,890.5C 960.141,885.251 959.141,880.251 957.5,875.5C 956.833,875.5 956.167,875.5 955.5,875.5C 955.167,875.5 954.833,875.5 954.5,875.5C 953.167,875.5 951.833,875.5 950.5,875.5C 949.833,875.5 949.167,875.5 948.5,875.5C 947.596,874.791 947.263,873.791 947.5,872.5C 953.509,872.334 959.509,872.501 965.5,873C 966.784,874.297 966.617,875.464 965,876.5C 964.333,880.5 964.333,884.5 965,888.5C 966.816,886.559 968.816,885.892 971,886.5C 971.499,881.845 971.666,877.179 971.5,872.5C 974.167,872.5 976.833,872.5 979.5,872.5C 979.5,877.5 979.5,882.5 979.5,887.5C 980.5,887.5 981.5,887.5 982.5,887.5 Z"/></g>
<g><path style="opacity:0.89" fill="#515a66" d="M 977.5,890.5 C 976.5,890.5 975.5,890.5 974.5,890.5C 974.5,885.5 974.5,880.5 974.5,875.5C 975.5,875.5 976.5,875.5 977.5,875.5C 977.5,880.5 977.5,885.5 977.5,890.5 Z"/></g>
<g><path style="opacity:1" fill="#1e2330" d="M 960.5,890.5 C 960.5,885.5 960.5,880.5 960.5,875.5C 961.5,875.5 962.5,875.5 963.5,875.5C 963.5,880.5 963.5,885.5 963.5,890.5C 962.5,890.5 961.5,890.5 960.5,890.5 Z"/></g>
<g><path style="opacity:0.859" fill="#293342" d="M 1028.5,888.5 C 1026.58,884.971 1025.91,880.971 1026.5,876.5C 1026.56,875.957 1026.89,875.624 1027.5,875.5C 1028.49,879.783 1028.83,884.116 1028.5,888.5 Z"/></g>
<g><path style="opacity:0.094" fill="#ccced1" d="M 1038.5,878.5 C 1037.61,881.054 1037.28,883.721 1037.5,886.5C 1037.17,886.5 1036.83,886.5 1036.5,886.5C 1035.96,883.302 1036.63,880.635 1038.5,878.5 Z"/></g>
<g><path style="opacity:0.106" fill="#d6d6d8" d="M 866.5,872.5 C 866.431,877.663 866.765,882.997 867.5,888.5C 868.493,883.88 868.827,879.214 868.5,874.5C 873.22,875.694 877.054,878.36 880,882.5C 880.399,882.272 880.565,881.938 880.5,881.5C 881.573,882.251 881.74,883.251 881,884.5C 878.672,883.001 876.505,881.334 874.5,879.5C 873.833,878.833 873.167,878.167 872.5,877.5C 872.179,875.952 871.179,875.285 869.5,875.5C 869.179,880.695 869.513,885.695 870.5,890.5C 871.167,890.5 871.833,890.5 872.5,890.5C 873.166,887.972 873.832,885.306 874.5,882.5C 875.107,882.624 875.44,882.957 875.5,883.5C 875.5,886.167 875.5,888.833 875.5,891.5C 872.167,891.5 868.833,891.5 865.5,891.5C 865.295,885.122 865.628,878.789 866.5,872.5 Z"/></g>
<g><path style="opacity:0.914" fill="#343e4d" d="M 872.5,877.5 C 873.167,878.167 873.833,878.833 874.5,879.5C 872.853,882.921 872.187,886.587 872.5,890.5C 871.833,890.5 871.167,890.5 870.5,890.5C 869.903,885.706 870.57,881.373 872.5,877.5 Z"/></g>
<g><path style="opacity:0.204" fill="#e5e5e6" d="M 891.5,874.5 C 891.771,876.38 891.104,877.713 889.5,878.5C 888.523,881.287 888.19,884.287 888.5,887.5C 887.359,884.36 887.192,881.027 888,877.5C 889.039,876.29 890.206,875.29 891.5,874.5 Z"/></g>
<g><path style="opacity:0.655" fill="#3b4352" d="M 934.5,876.5 C 935.209,875.596 936.209,875.263 937.5,875.5C 937.821,880.695 937.487,885.695 936.5,890.5C 937.103,885.381 936.436,880.715 934.5,876.5 Z"/></g>
<g><path style="opacity:1" fill="#1e2430" d="M 988.5,875.5 C 989.5,875.5 990.5,875.5 991.5,875.5C 991.5,880.5 991.5,885.5 991.5,890.5C 990.5,890.5 989.5,890.5 988.5,890.5C 988.5,885.5 988.5,880.5 988.5,875.5 Z"/></g>
<g><path style="opacity:1" fill="#2c3545" d="M 772.5,878.5 C 773.478,878.811 774.145,879.478 774.5,880.5C 773.583,883.758 773.249,887.091 773.5,890.5C 772.5,890.5 771.5,890.5 770.5,890.5C 769.911,886.029 770.577,882.029 772.5,878.5 Z"/></g>
<g><path style="opacity:0.039" fill="#f2f3f3" d="M 816.5,879.5 C 816.833,879.5 817.167,879.5 817.5,879.5C 818.01,882.388 817.344,884.721 815.5,886.5C 816.369,884.283 816.702,881.95 816.5,879.5 Z"/></g>
<g><path style="opacity:0.42" fill="#a1a4aa" d="M 829.5,872.5 C 832.187,872.336 834.854,872.503 837.5,873C 838.942,873.377 839.942,874.21 840.5,875.5C 840.5,876.5 840.5,877.5 840.5,878.5C 839.5,878.5 838.5,878.5 837.5,878.5C 833.072,875.519 830.405,876.853 829.5,882.5C 830.309,884.071 830.643,885.738 830.5,887.5C 833.388,888.01 835.721,887.344 837.5,885.5C 838.5,885.5 839.5,885.5 840.5,885.5C 840.5,886.833 840.5,888.167 840.5,889.5C 839.533,890.806 838.199,891.473 836.5,891.5C 835.903,890.861 835.07,890.528 834,890.5C 832.624,890.684 831.791,891.351 831.5,892.5C 829.272,892.223 827.605,891.223 826.5,889.5C 826.5,889.167 826.5,888.833 826.5,888.5C 827.376,888.631 828.043,888.298 828.5,887.5C 826.963,883.937 827.296,880.603 829.5,877.5C 829.043,876.702 828.376,876.369 827.5,876.5C 828.806,875.533 829.473,874.199 829.5,872.5 Z"/></g>
<g><path style="opacity:0.18" fill="#dfe0e2" d="M 906.5,887.5 C 905.833,886.167 905.167,884.833 904.5,883.5C 903.5,883.5 902.5,883.5 901.5,883.5C 900.978,885.219 899.978,886.552 898.5,887.5C 898.5,885.833 898.5,884.167 898.5,882.5C 901.167,882.5 903.833,882.5 906.5,882.5C 906.5,884.167 906.5,885.833 906.5,887.5 Z"/></g>
<g><path style="opacity:0.248" fill="#cbcccf" d="M 1016.5,876.5 C 1015.5,876.5 1014.5,876.5 1013.5,876.5C 1013.5,881.5 1013.5,886.5 1013.5,891.5C 1010.17,891.5 1006.83,891.5 1003.5,891.5C 1003.5,890.167 1003.5,888.833 1003.5,887.5C 1004.17,887.833 1004.83,888.167 1005.5,888.5C 1005.62,889.586 1006.29,890.253 1007.5,890.5C 1008.17,890.167 1008.83,889.833 1009.5,889.5C 1007.68,886.35 1006.34,883.016 1005.5,879.5C 1008.06,881.434 1009.39,884.101 1009.5,887.5C 1010.55,887.649 1011.55,887.483 1012.5,887C 1011.54,882.934 1011.2,878.767 1011.5,874.5C 1013.78,874.077 1015.45,874.744 1016.5,876.5 Z"/></g>
<g><path style="opacity:0.671" fill="#6e737b" d="M 768.5,876.5 C 770.38,876.229 771.713,876.896 772.5,878.5C 770.577,882.029 769.911,886.029 770.5,890.5C 769.833,889.5 769.167,888.5 768.5,887.5C 768.5,883.833 768.5,880.167 768.5,876.5 Z"/></g>
<g><path style="opacity:0.886" fill="#283343" d="M 782.5,876.5 C 783.794,878.048 784.461,880.048 784.5,882.5C 784.167,884.5 783.833,886.5 783.5,888.5C 781.358,887.563 781.024,886.23 782.5,884.5C 782.5,881.833 782.5,879.167 782.5,876.5 Z"/></g>
<g><path style="opacity:1" fill="#37404e" d="M 852.5,882.5 C 853.877,885.524 855.21,888.524 856.5,891.5C 855.5,891.5 854.5,891.5 853.5,891.5C 852.937,888.705 851.604,886.372 849.5,884.5C 849.402,881.752 850.402,881.086 852.5,882.5 Z"/></g>
<g><path style="opacity:0.082" fill="#d6d7da" d="M 876.5,883.5 C 878.246,885.252 880.246,886.585 882.5,887.5C 882.5,888.167 882.5,888.833 882.5,889.5C 879.5,888.5 877.5,886.5 876.5,883.5 Z"/></g>
<g><path style="opacity:0.82" fill="#6a6f79" d="M 882.5,876.5 C 882.5,880.167 882.5,883.833 882.5,887.5C 880.246,886.585 878.246,885.252 876.5,883.5C 876.167,883.5 875.833,883.5 875.5,883.5C 875.44,882.957 875.107,882.624 874.5,882.5C 873.832,885.306 873.166,887.972 872.5,890.5C 872.187,886.587 872.853,882.921 874.5,879.5C 876.505,881.334 878.672,883.001 881,884.5C 881.74,883.251 881.573,882.251 880.5,881.5C 880.5,880.167 880.5,878.833 880.5,877.5C 881.167,877.167 881.833,876.833 882.5,876.5 Z"/></g>
<g><path style="opacity:0.651" fill="#aaadb2" d="M 923.5,882.5 C 926.084,883.048 927.084,884.715 926.5,887.5C 925.5,887.5 924.5,887.5 923.5,887.5C 923.5,885.833 923.5,884.167 923.5,882.5 Z"/></g>
<g><path style="opacity:0.761" fill="#70757e" d="M 1026.5,876.5 C 1025.91,880.971 1026.58,884.971 1028.5,888.5C 1028.5,889.5 1028.5,890.5 1028.5,891.5C 1026.82,891.715 1025.82,891.048 1025.5,889.5C 1025.17,887.167 1023.83,885.833 1021.5,885.5C 1018.96,882.693 1017.96,883.36 1018.5,887.5C 1017.83,888.5 1017.17,889.5 1016.5,890.5C 1016.5,887.5 1016.5,884.5 1016.5,881.5C 1017.79,881.737 1018.79,881.404 1019.5,880.5C 1021.15,881.81 1022.81,883.143 1024.5,884.5C 1025.55,883.078 1025.55,881.578 1024.5,880C 1024.81,878.541 1025.47,877.374 1026.5,876.5 Z"/></g>
<g><path style="opacity:0.257" fill="#b1b4b8" d="M 779.5,882.5 C 777.821,882.285 776.821,882.952 776.5,884.5C 775.637,883.537 774.97,883.537 774.5,884.5C 775.577,886.729 776.244,889.063 776.5,891.5C 773.428,891.817 770.428,891.484 767.5,890.5C 768.127,889.583 768.461,888.583 768.5,887.5C 769.167,888.5 769.833,889.5 770.5,890.5C 771.5,890.5 772.5,890.5 773.5,890.5C 773.249,887.091 773.583,883.758 774.5,880.5C 774.145,879.478 773.478,878.811 772.5,878.5C 771.713,876.896 770.38,876.229 768.5,876.5C 768.791,875.351 769.624,874.684 771,874.5C 774.964,875.964 777.797,878.631 779.5,882.5 Z"/></g>
<g><path style="opacity:0.212" fill="#82878e" d="M 782.5,889.5 C 779.911,888.581 777.911,886.914 776.5,884.5C 776.821,882.952 777.821,882.285 779.5,882.5C 779.973,883.906 780.973,884.573 782.5,884.5C 781.024,886.23 781.358,887.563 783.5,888.5C 783.833,886.5 784.167,884.5 784.5,882.5C 784.461,880.048 783.794,878.048 782.5,876.5C 782.821,874.952 783.821,874.285 785.5,874.5C 785.5,879.5 785.5,884.5 785.5,889.5C 784.5,889.5 783.5,889.5 782.5,889.5 Z"/></g>
<g><path style="opacity:0.48" fill="#9da1a8" d="M 872.5,877.5 C 870.57,881.373 869.903,885.706 870.5,890.5C 869.513,885.695 869.179,880.695 869.5,875.5C 871.179,875.285 872.179,875.952 872.5,877.5 Z"/></g>
<g><path style="opacity:0.224" fill="#d0d1d4" d="M 916.5,870.5 C 916.176,877.354 916.509,884.021 917.5,890.5C 918.167,890.5 918.833,890.5 919.5,890.5C 921.415,890.216 923.081,890.549 924.5,891.5C 920.833,891.5 917.167,891.5 913.5,891.5C 913.297,889.61 913.963,888.11 915.5,887C 914.167,883.333 914.167,879.667 915.5,876C 912.638,873.442 912.971,871.609 916.5,870.5 Z"/></g>
<g><path style="opacity:0.012" fill="#d9dadb" d="M 945.5,882.5 C 945.392,884.514 946.058,886.18 947.5,887.5C 943.531,886.588 942.864,884.921 945.5,882.5 Z"/></g>
<g><path style="opacity:1" fill="#313a49" d="M 1005.5,879.5 C 1006.34,883.016 1007.68,886.35 1009.5,889.5C 1008.83,889.833 1008.17,890.167 1007.5,890.5C 1006.29,890.253 1005.62,889.586 1005.5,888.5C 1005.07,884.732 1003.73,881.399 1001.5,878.5C 1001.82,876.952 1002.82,876.285 1004.5,876.5C 1004.26,877.791 1004.6,878.791 1005.5,879.5 Z"/></g>
<g><path style="opacity:0.341" fill="#cbcccf" d="M 843.5,872.5 C 843.177,878.69 843.51,884.69 844.5,890.5C 845.167,890.5 845.833,890.5 846.5,890.5C 847.461,888.735 847.795,886.735 847.5,884.5C 848.167,884.5 848.833,884.5 849.5,884.5C 851.604,886.372 852.937,888.705 853.5,891.5C 851.657,890.754 850.324,889.421 849.5,887.5C 848.41,888.391 848.41,889.391 849.5,890.5C 846.205,891.915 843.205,891.581 840.5,889.5C 840.5,888.167 840.5,886.833 840.5,885.5C 839.5,885.5 838.5,885.5 837.5,885.5C 838.183,883.824 839.517,883.157 841.5,883.5C 842.845,883.426 842.845,882.426 841.5,880.5C 839.517,880.843 838.183,880.176 837.5,878.5C 838.5,878.5 839.5,878.5 840.5,878.5C 840.5,877.5 840.5,876.5 840.5,875.5C 841.1,874.1 842.1,873.1 843.5,872.5 Z"/></g>
<g><path style="opacity:0.859" fill="#272f3e" d="M 891.5,874.5 C 891.833,874.5 892.167,874.5 892.5,874.5C 893.806,875.467 894.473,876.801 894.5,878.5C 892.896,881.403 891.896,884.737 891.5,888.5C 890.808,887.975 890.308,887.308 890,886.5C 889.503,883.854 889.336,881.187 889.5,878.5C 891.104,877.713 891.771,876.38 891.5,874.5 Z"/></g>
<g><path style="opacity:0.051" fill="#b4b6ba" d="M 782.5,889.5 C 783.5,889.5 784.5,889.5 785.5,889.5C 785.5,884.5 785.5,879.5 785.5,874.5C 783.821,874.285 782.821,874.952 782.5,876.5C 782.5,879.167 782.5,881.833 782.5,884.5C 780.973,884.573 779.973,883.906 779.5,882.5C 780.239,882.631 780.906,882.464 781.5,882C 780.39,878.951 779.723,875.784 779.5,872.5C 782.167,872.5 784.833,872.5 787.5,872.5C 787.5,878.833 787.5,885.167 787.5,891.5C 785.302,891.88 783.635,891.213 782.5,889.5 Z"/></g>
<g><path style="opacity:0.047" fill="#666c75" d="M 916.5,870.5 C 917.833,870.5 919.167,870.5 920.5,870.5C 920.182,875.032 920.515,879.366 921.5,883.5C 921.157,885.483 921.824,886.817 923.5,887.5C 924.5,887.5 925.5,887.5 926.5,887.5C 926.842,888.338 927.508,888.672 928.5,888.5C 927.449,889.222 926.782,890.222 926.5,891.5C 925.833,891.5 925.167,891.5 924.5,891.5C 923.081,890.549 921.415,890.216 919.5,890.5C 918.833,869.167 918.167,869.167 917.5,890.5C 916.509,884.021 916.176,877.354 916.5,870.5 Z"/></g>
<g><path style="opacity:1" fill="#1e293a" d="M 919.5,890.5 C 918.833,890.5 918.167,890.5 917.5,890.5C 918.167,869.167 918.833,869.167 919.5,890.5 Z"/></g>
<g><path style="opacity:0.559" fill="#868a91" d="M 1001.5,878.5 C 1003.73,881.399 1005.07,884.732 1005.5,888.5C 1004.83,888.167 1004.17,887.833 1003.5,887.5C 1001.62,887.229 1000.29,887.896 999.5,889.5C 998.142,890.626 996.808,890.626 995.5,889.5C 996.309,887.929 996.643,886.262 996.5,884.5C 998.46,885.138 1000.29,885.138 1002,884.5C 1002.75,881.049 1002.08,880.716 1000,883.5C 999.401,881.465 999.901,879.799 1001.5,878.5 Z"/></g>
<g><path style="opacity:0.292" fill="#bbbdc1" d="M 809.5,878.5 C 809.5,881.5 809.5,884.5 809.5,887.5C 811.099,887.232 812.432,887.566 813.5,888.5C 813.782,889.778 814.449,890.778 815.5,891.5C 814.393,893.847 812.726,894.18 810.5,892.5C 808.815,889.608 807.815,886.441 807.5,883C 807.307,880.992 807.974,879.492 809.5,878.5 Z"/></g>
<g><path style="opacity:0.894" fill="#858a91" d="M 817.5,879.5 C 818.319,882.305 818.819,885.305 819,888.5C 819.383,887.944 819.883,887.611 820.5,887.5C 820.5,888.167 820.5,888.833 820.5,889.5C 819.221,890.968 817.554,891.635 815.5,891.5C 814.449,890.778 813.782,889.778 813.5,888.5C 814.5,888.167 815.167,887.5 815.5,886.5C 817.344,884.721 818.01,882.388 817.5,879.5 Z"/></g>
<g><path style="opacity:0.635" fill="#8e9299" d="M 889.5,878.5 C 889.336,881.187 889.503,883.854 890,886.5C 890.308,887.308 890.808,887.975 891.5,888.5C 891.896,884.737 892.896,881.403 894.5,878.5C 892.269,883.256 893.436,886.589 898,888.5C 898.399,888.272 898.565,887.938 898.5,887.5C 899.978,886.552 900.978,885.219 901.5,883.5C 901.5,885.167 901.5,886.833 901.5,888.5C 902.5,888.5 903.5,888.5 904.5,888.5C 904.5,886.833 904.5,885.167 904.5,883.5C 905.167,884.833 905.833,886.167 906.5,887.5C 905.191,890.451 902.857,891.784 899.5,891.5C 897.95,890.28 896.284,890.28 894.5,891.5C 891.144,892.138 889.144,890.804 888.5,887.5C 888.19,884.287 888.523,881.287 889.5,878.5 Z"/></g>
<g><path style="opacity:0.843" fill="#2f3746" d="M 901.5,883.5 C 902.5,883.5 903.5,883.5 904.5,883.5C 904.5,885.167 904.5,886.833 904.5,888.5C 903.5,888.5 902.5,888.5 901.5,888.5C 901.5,886.833 901.5,885.167 901.5,883.5 Z"/></g>
<g><path style="opacity:0.133" fill="#e8e8e9" d="M 1021.5,885.5 C 1023.83,885.833 1025.17,887.167 1025.5,889.5C 1023.74,888.674 1022.4,887.341 1021.5,885.5 Z"/></g>
<g><path style="opacity:0.62" fill="#6e747d" d="M 1058.5,887.5 C 1058.83,887.5 1059.17,887.5 1059.5,887.5C 1061.91,887.694 1062.91,889.027 1062.5,891.5C 1061.83,891.5 1061.17,891.5 1060.5,891.5C 1059.4,890.395 1058.73,889.062 1058.5,887.5 Z"/></g>
<g><path style="opacity:0.459" fill="#888c93" d="M 793.5,876.5 C 794.166,880.353 794.833,884.353 795.5,888.5C 796.107,888.376 796.44,888.043 796.5,887.5C 797.5,887.5 798.5,887.5 799.5,887.5C 800.091,888.151 800.757,888.818 801.5,889.5C 798.914,890.48 796.247,890.813 793.5,890.5C 793.5,885.833 793.5,881.167 793.5,876.5 Z"/></g>
<g><path style="opacity:0.004" fill="#a4a6ab" d="M 928.5,879.5 C 930.463,882.518 930.963,885.851 930,889.5C 929.184,890.823 928.017,891.489 926.5,891.5C 926.782,890.222 927.449,889.222 928.5,888.5C 930.107,885.311 929.44,882.645 926.5,880.5C 926.957,879.702 927.624,879.369 928.5,879.5 Z"/></g>
<g><path style="opacity:0.173" fill="#858990" d="M 753.5,870.5 C 753.5,875.833 753.5,881.167 753.5,886.5C 752.834,882.316 752.167,877.982 751.5,873.5C 750.338,878.131 750.172,882.798 751,887.5C 751.977,888.774 752.811,888.774 753.5,887.5C 754.652,888.625 755.652,888.625 756.5,887.5C 758.292,887.634 759.958,887.301 761.5,886.5C 763.414,883.316 764.08,879.649 763.5,875.5C 763.875,879.442 764.875,883.109 766.5,886.5C 765.665,890.173 763.332,892.173 759.5,892.5C 759.631,891.624 759.298,890.957 758.5,890.5C 757.583,891.127 756.583,891.461 755.5,891.5C 752.215,891.731 749.715,890.397 748,887.5C 747.501,881.843 747.334,876.176 747.5,870.5C 749.5,870.5 751.5,870.5 753.5,870.5 Z"/></g>
<g><path style="opacity:0.941" fill="#333d4c" d="M 753.5,886.5 C 753.5,886.833 753.5,887.167 753.5,887.5C 752.811,888.774 751.977,888.774 751,887.5C 750.172,882.798 750.338,878.131 751.5,873.5C 752.167,877.982 752.834,882.316 753.5,886.5 Z"/></g>
<g><path style="opacity:0.029" fill="#d7d9db" d="M 948.5,875.5 C 949.167,875.5 949.833,875.5 950.5,875.5C 950.179,880.695 950.513,885.695 951.5,890.5C 952.167,890.5 952.833,890.5 953.5,890.5C 954.487,885.695 954.821,880.695 954.5,875.5C 954.833,875.5 955.167,875.5 955.5,875.5C 955.058,880.691 955.558,885.691 957,890.5C 958.776,885.535 958.942,880.535 957.5,875.5C 959.141,880.251 960.141,885.251 960.5,890.5C 960.5,890.833 960.5,891.167 960.5,891.5C 955.833,891.5 951.167,891.5 946.5,891.5C 947.11,890.609 947.443,889.609 947.5,888.5C 948.794,886.952 949.461,884.952 949.5,882.5C 949.44,880.079 949.107,877.746 948.5,875.5 Z M 955.5,875.5 C 956.167,875.5 956.833,875.5 957.5,875.5C 958.942,880.535 958.776,885.535 957,890.5C 955.558,885.691 955.058,880.691 955.5,875.5 Z"/></g>
<g><path style="opacity:0.572" fill="#606873" d="M 950.5,875.5 C 951.833,875.5 953.167,875.5 954.5,875.5C 954.821,880.695 954.487,885.695 953.5,890.5C 952.833,871.833 952.167,871.833 951.5,890.5C 950.513,885.695 950.179,880.695 950.5,875.5 Z"/></g>
<g><path style="opacity:1" fill="#090d19" d="M 953.5,890.5 C 952.833,890.5 952.167,890.5 951.5,890.5C 952.167,871.833 952.833,871.833 953.5,890.5 Z"/></g>
<g><path style="opacity:0.29" fill="#abaeb3" d="M 1035.5,874.5 C 1034.15,877.093 1033.48,879.927 1033.5,883C 1033.67,884.5 1033.83,886 1034,887.5C 1035.46,888.883 1036.29,888.549 1036.5,886.5C 1036.83,886.5 1037.17,886.5 1037.5,886.5C 1038.74,887.043 1040.08,887.377 1041.5,887.5C 1043.88,886.774 1045.88,885.441 1047.5,883.5C 1048.18,884.243 1048.85,884.909 1049.5,885.5C 1049.5,885.833 1049.5,886.167 1049.5,886.5C 1045.02,894.945 1039.19,895.612 1032,888.5C 1030.29,884.878 1030.29,881.211 1032,877.5C 1032.76,875.937 1033.93,874.937 1035.5,874.5 Z"/></g>
<g><path style="opacity:0.192" fill="#dcddde" d="M 1049.5,887.5 C 1051.18,888.183 1051.84,889.517 1051.5,891.5C 1049.82,890.817 1049.16,889.483 1049.5,887.5 Z"/></g>
<g><path style="opacity:0.008" fill="#d9d9dc" d="M 759.5,892.5 C 759.083,893.124 758.416,893.457 757.5,893.5C 756.287,893.253 755.62,892.586 755.5,891.5C 756.583,891.461 757.583,891.127 758.5,890.5C 759.298,890.957 759.631,891.624 759.5,892.5 Z"/></g>
<g><path style="opacity:0.018" fill="#dfdfe1" d="M 836.5,891.5 C 835.121,893.597 833.455,893.93 831.5,892.5C 831.791,891.351 832.624,890.684 834,890.5C 835.07,890.528 835.903,890.861 836.5,891.5 Z"/></g>
<g><path style="opacity:0.027" fill="#e7e7e9" d="M 899.5,891.5 C 897.962,894.048 896.296,894.048 894.5,891.5C 896.284,890.28 897.95,890.28 899.5,891.5 Z"/></g>
</svg>
