<svg width="400" height="300" viewBox="0 0 400 300" fill="none" xmlns="http://www.w3.org/2000/svg">
  <!-- Background gradient -->
  <defs>
    <linearGradient id="oilGasGradient" x1="0%" y1="0%" x2="100%" y2="100%">
      <stop offset="0%" style="stop-color:#dc2626;stop-opacity:0.1" />
      <stop offset="100%" style="stop-color:#ef4444;stop-opacity:0.2" />
    </linearGradient>
    <linearGradient id="rigGradient" x1="0%" y1="0%" x2="100%" y2="100%">
      <stop offset="0%" style="stop-color:#dc2626;stop-opacity:1" />
      <stop offset="100%" style="stop-color:#991b1b;stop-opacity:1" />
    </linearGradient>
    <linearGradient id="pipeGradient" x1="0%" y1="0%" x2="100%" y2="0%">
      <stop offset="0%" style="stop-color:#6b7280;stop-opacity:1" />
      <stop offset="100%" style="stop-color:#374151;stop-opacity:1" />
    </linearGradient>
  </defs>
  
  <!-- Background -->
  <rect width="400" height="300" fill="url(#oilGasGradient)" rx="20"/>
  
  <!-- Oil derrick/drilling rig -->
  <g transform="translate(80, 60)">
    <!-- Base platform -->
    <rect x="0" y="140" width="80" height="20" fill="url(#rigGradient)" rx="4"/>
    
    <!-- Main tower structure -->
    <polygon points="35,140 45,140 50,40 30,40" fill="url(#rigGradient)"/>
    
    <!-- Cross beams -->
    <rect x="25" y="60" width="30" height="3" fill="#991b1b"/>
    <rect x="25" y="80" width="30" height="3" fill="#991b1b"/>
    <rect x="25" y="100" width="30" height="3" fill="#991b1b"/>
    <rect x="25" y="120" width="30" height="3" fill="#991b1b"/>
    
    <!-- Top structure -->
    <rect x="30" y="35" width="20" height="10" fill="#991b1b" rx="2"/>
    
    <!-- Drilling cable -->
    <line x1="40" y1="45" x2="40" y2="140" stroke="#374151" stroke-width="2"/>
  </g>
  
  <!-- Pipeline system -->
  <g transform="translate(200, 120)">
    <!-- Horizontal pipes -->
    <rect x="0" y="20" width="150" height="12" fill="url(#pipeGradient)" rx="6"/>
    <rect x="0" y="50" width="120" height="12" fill="url(#pipeGradient)" rx="6"/>
    
    <!-- Vertical connector -->
    <rect x="110" y="20" width="12" height="42" fill="url(#pipeGradient)" rx="6"/>
    
    <!-- Pipe joints -->
    <circle cx="50" cy="26" r="8" fill="#374151"/>
    <circle cx="100" cy="26" r="8" fill="#374151"/>
    <circle cx="60" cy="56" r="8" fill="#374151"/>
    
    <!-- Valve -->
    <rect x="45" y="18" width="10" height="16" fill="#dc2626" rx="2"/>
  </g>
  
  <!-- Oil barrel -->
  <g transform="translate(300, 180)">
    <ellipse cx="25" cy="10" rx="20" ry="8" fill="#374151"/>
    <rect x="5" y="10" width="40" height="60" fill="#6b7280"/>
    <ellipse cx="25" cy="70" rx="20" ry="8" fill="#374151"/>
    
    <!-- Barrel bands -->
    <rect x="5" y="25" width="40" height="3" fill="#374151"/>
    <rect x="5" y="45" width="40" height="3" fill="#374151"/>
    
    <!-- Oil drop symbol -->
    <path d="M25,35 Q20,40 20,45 Q20,50 25,50 Q30,50 30,45 Q30,40 25,35 Z" fill="#dc2626"/>
  </g>
  
  <!-- Gas flame -->
  <g transform="translate(160, 80)">
    <path d="M20,40 Q15,30 20,20 Q25,15 30,20 Q35,30 30,40 Q25,45 20,40 Z" fill="#f59e0b"/>
    <path d="M22,38 Q18,30 22,22 Q26,18 28,22 Q32,30 28,38 Q25,42 22,38 Z" fill="#fbbf24"/>
    
    <!-- Flare stack -->
    <rect x="18" y="40" width="14" height="40" fill="#6b7280"/>
    <rect x="22" y="80" width="6" height="20" fill="#374151"/>
  </g>
  
  <!-- Title -->
  <text x="200" y="40" text-anchor="middle" fill="#dc2626" font-family="Arial, sans-serif" font-size="18" font-weight="bold">
    Oil &amp; Gas Services
  </text>
</svg>