<svg width="400" height="300" viewBox="0 0 400 300" fill="none" xmlns="http://www.w3.org/2000/svg">
  <!-- Background gradient -->
  <defs>
    <linearGradient id="recruitmentGradient" x1="0%" y1="0%" x2="100%" y2="100%">
      <stop offset="0%" style="stop-color:#7c3aed;stop-opacity:0.1" />
      <stop offset="100%" style="stop-color:#8b5cf6;stop-opacity:0.2" />
    </linearGradient>
    <linearGradient id="personGradient" x1="0%" y1="0%" x2="100%" y2="100%">
      <stop offset="0%" style="stop-color:#8b5cf6;stop-opacity:1" />
      <stop offset="100%" style="stop-color:#7c3aed;stop-opacity:1" />
    </linearGradient>
  </defs>
  
  <!-- Background -->
  <rect width="400" height="300" fill="url(#recruitmentGradient)" rx="20"/>
  
  <!-- Central figure (recruiter/manager) -->
  <g transform="translate(180, 100)">
    <!-- Head -->
    <circle cx="20" cy="20" r="15" fill="url(#personGradient)"/>
    
    <!-- Body -->
    <rect x="10" y="30" width="20" height="35" fill="url(#personGradient)" rx="10"/>
    
    <!-- Arms -->
    <rect x="0" y="35" width="15" height="8" fill="#7c3aed" rx="4"/>
    <rect x="25" y="35" width="15" height="8" fill="#7c3aed" rx="4"/>
    
    <!-- Legs -->
    <rect x="12" y="60" width="6" height="25" fill="#7c3aed" rx="3"/>
    <rect x="22" y="60" width="6" height="25" fill="#7c3aed" rx="3"/>
    
    <!-- Briefcase -->
    <rect x="42" y="40" width="12" height="8" fill="#374151" rx="2"/>
    <rect x="46" y="38" width="4" height="3" fill="#6b7280" rx="1"/>
  </g>
  
  <!-- Team members around central figure -->
  <!-- Person 1 (left) -->
  <g transform="translate(80, 120)">
    <circle cx="15" cy="15" r="12" fill="#3b82f6"/>
    <rect x="8" y="25" width="14" height="25" fill="#3b82f6" rx="7"/>
    <rect x="2" y="28" width="10" height="6" fill="#1e40af" rx="3"/>
    <rect x="18" y="28" width="10" height="6" fill="#1e40af" rx="3"/>
    <rect x="10" y="45" width="4" height="18" fill="#1e40af" rx="2"/>
    <rect x="16" y="45" width="4" height="18" fill="#1e40af" rx="2"/>
  </g>
  
  <!-- Person 2 (right) -->
  <g transform="translate(300, 120)">
    <circle cx="15" cy="15" r="12" fill="#10b981"/>
    <rect x="8" y="25" width="14" height="25" fill="#10b981" rx="7"/>
    <rect x="2" y="28" width="10" height="6" fill="#059669" rx="3"/>
    <rect x="18" y="28" width="10" height="6" fill="#059669" rx="3"/>
    <rect x="10" y="45" width="4" height="18" fill="#059669" rx="2"/>
    <rect x="16" y="45" width="4" height="18" fill="#059669" rx="2"/>
  </g>
  
  <!-- Person 3 (top left) -->
  <g transform="translate(120, 80)">
    <circle cx="12" cy="12" r="10" fill="#f59e0b"/>
    <rect x="6" y="20" width="12" height="20" fill="#f59e0b" rx="6"/>
    <rect x="1" y="23" width="8" height="5" fill="#d97706" rx="2"/>
    <rect x="15" y="23" width="8" height="5" fill="#d97706" rx="2"/>
    <rect x="8" y="36" width="3" height="15" fill="#d97706" rx="1"/>
    <rect x="13" y="36" width="3" height="15" fill="#d97706" rx="1"/>
  </g>
  
  <!-- Person 4 (top right) -->
  <g transform="translate(260, 80)">
    <circle cx="12" cy="12" r="10" fill="#ef4444"/>
    <rect x="6" y="20" width="12" height="20" fill="#ef4444" rx="6"/>
    <rect x="1" y="23" width="8" height="5" fill="#dc2626" rx="2"/>
    <rect x="15" y="23" width="8" height="5" fill="#dc2626" rx="2"/>
    <rect x="8" y="36" width="3" height="15" fill="#dc2626" rx="1"/>
    <rect x="13" y="36" width="3" height="15" fill="#dc2626" rx="1"/>
  </g>
  
  <!-- Connection lines (network) -->
  <line x1="200" y1="135" x2="95" y2="135" stroke="#8b5cf6" stroke-width="2" opacity="0.6"/>
  <line x1="200" y1="135" x2="315" y2="135" stroke="#8b5cf6" stroke-width="2" opacity="0.6"/>
  <line x1="200" y1="135" x2="132" y2="95" stroke="#8b5cf6" stroke-width="2" opacity="0.6"/>
  <line x1="200" y1="135" x2="272" y2="95" stroke="#8b5cf6" stroke-width="2" opacity="0.6"/>
  
  <!-- Resume/CV documents -->
  <g transform="translate(50, 200)">
    <rect x="0" y="0" width="25" height="35" fill="white" stroke="#8b5cf6" stroke-width="2" rx="3"/>
    <rect x="3" y="5" width="19" height="2" fill="#8b5cf6" rx="1"/>
    <rect x="3" y="10" width="15" height="1" fill="#d1d5db" rx="0.5"/>
    <rect x="3" y="13" width="12" height="1" fill="#d1d5db" rx="0.5"/>
    <rect x="3" y="16" width="18" height="1" fill="#d1d5db" rx="0.5"/>
    <rect x="3" y="19" width="14" height="1" fill="#d1d5db" rx="0.5"/>
    
    <!-- Second document -->
    <rect x="15" y="5" width="25" height="35" fill="white" stroke="#8b5cf6" stroke-width="2" rx="3"/>
    <rect x="18" y="10" width="19" height="2" fill="#8b5cf6" rx="1"/>
    <rect x="18" y="15" width="15" height="1" fill="#d1d5db" rx="0.5"/>
    <rect x="18" y="18" width="12" height="1" fill="#d1d5db" rx="0.5"/>
  </g>
  
  <!-- Magnifying glass (talent search) -->
  <g transform="translate(320, 200)">
    <circle cx="15" cy="15" r="12" fill="none" stroke="#8b5cf6" stroke-width="3"/>
    <line x1="24" y1="24" x2="35" y2="35" stroke="#8b5cf6" stroke-width="3" stroke-linecap="round"/>
    
    <!-- Person inside magnifying glass -->
    <circle cx="15" cy="12" r="3" fill="#8b5cf6"/>
    <rect x="13" y="15" width="4" height="6" fill="#8b5cf6" rx="2"/>
  </g>
  
  <!-- Skills/Training icons -->
  <g transform="translate(150, 220)">
    <!-- Graduation cap -->
    <rect x="0" y="15" width="30" height="4" fill="#8b5cf6" rx="2"/>
    <rect x="10" y="10" width="10" height="8" fill="#7c3aed" rx="2"/>
    <rect x="14" y="8" width="2" height="4" fill="#6b46c1"/>
    
    <!-- Certificate -->
    <rect x="40" y="5" width="20" height="25" fill="white" stroke="#8b5cf6" stroke-width="2" rx="2"/>
    <rect x="43" y="10" width="14" height="2" fill="#8b5cf6" rx="1"/>
    <rect x="43" y="15" width="10" height="1" fill="#d1d5db" rx="0.5"/>
    <rect x="43" y="18" width="12" height="1" fill="#d1d5db" rx="0.5"/>
    
    <!-- Award ribbon -->
    <circle cx="70" cy="15" r="8" fill="#fbbf24"/>
    <polygon points="70,7 72,12 77,12 73,16 75,21 70,18 65,21 67,16 63,12 68,12" fill="#f59e0b"/>
  </g>
  
</svg>